<svg width="176" height="159" viewBox="0 0 176 159" fill="none" xmlns="http://www.w3.org/2000/svg">
<path d="M176 47.2256C176 47.1152 176 47.0049 176 47.0049C176 46.8945 176 46.8945 175.89 46.7842C175.89 46.6739 175.779 46.6738 175.779 46.5635L133.049 0.220693C133.049 0.220693 133.049 0.22072 132.939 0.11038H132.828C132.718 0.11038 132.607 0 132.497 0H132.386H132.276C132.276 0 132.276 0 132.166 0C132.166 0 132.166 0 132.055 0C132.055 0 132.055 0 131.945 0C131.945 0 131.945 0 131.834 0L88 18.7578L44.1656 0C44.1656 0 44.1656 0 44.0552 0C44.0552 0 44.0552 0 43.9448 0C43.9448 0 43.9448 0 43.8344 0C43.8344 0 43.8344 0 43.724 0H43.6136H43.5031C43.3927 0 43.2823 4.04061e-05 43.1719 0.11038C43.1719 0.11038 43.0615 0.110353 43.0615 0.220693C43.0615 0.220693 43.0615 0.220734 42.9511 0.331074L0.220842 46.6739C0.220842 46.7842 0.110421 46.7842 0.110421 46.8945C0.110421 47.0048 0 47.0049 0 47.1152C0 47.2255 0 47.2256 0 47.3359C0 47.4462 0 47.4462 0 47.5566V47.6669L17.4454 95.7752C17.4454 95.8855 17.4454 95.8855 17.5558 95.8855C17.5558 95.8855 17.5558 95.8855 17.5558 95.9958L17.6662 96.1062L87.2271 159C87.2271 159 87.2271 159 87.3375 159C87.3375 159 87.3375 159 87.4479 159H87.5583H87.6687H87.7792H87.8896C87.8896 159 87.8896 159 88 159C88 159 88 159 88.1104 159L157.671 96.1062L157.782 95.9958C157.782 95.9958 157.782 95.9958 157.782 95.8855L157.892 95.7752L175.337 47.6669V47.5566C176 47.3359 176 47.3359 176 47.2256ZM65.8068 70.1763L86.7855 24.6059V149.952L83.9147 139.028L65.8068 70.1763ZM88.9937 149.952V24.6059L109.972 70.1763L91.8645 139.028L88.9937 149.952ZM62.1631 70.2866L18.8808 93.6787L2.64993 48.8807L62.1631 70.2866ZM156.898 93.789L113.726 70.2866L173.129 48.991L156.898 93.789ZM112.733 68.4108L132.718 2.97919L173.129 46.7842L112.733 68.4108ZM130.509 2.7585L110.856 67.1971L95.1769 32.9917L89.325 20.3026L130.509 2.7585ZM86.4542 20.3026L80.6023 32.9917L64.9234 67.1971L45.2698 2.7585L86.4542 20.3026ZM43.1719 2.86888L63.1569 68.3005L2.87077 46.6739L43.1719 2.86888ZM20.0954 95.5545L64.0402 71.721L86.0125 155.028L20.0954 95.5545ZM111.849 71.721L155.794 95.5545L89.9874 155.028L111.849 71.721Z" fill="#495057"/>
</svg>
