<svg width="50" height="50" viewBox="0 0 50 50" fill="none" xmlns="http://www.w3.org/2000/svg">
<path d="M30.3685 26.9159C31.2313 27.1852 32.058 27.5574 32.8306 28.0242L32.7811 27.9957C33.6252 28.3678 34.3544 28.8032 35.0198 29.3146L34.9958 29.2972C35.0278 29.3938 35.0469 29.503 35.0469 29.6186L35.0453 29.6693V29.6677C35.0214 30.347 34.8698 30.985 34.6129 31.5661L34.6257 31.5329C34.2571 32.266 33.6427 32.8312 32.8912 33.132L32.8689 33.1399C32.0912 33.5434 31.2313 33.7659 30.3541 33.7907H30.3446C28.6703 33.5771 27.0523 33.0494 25.5768 32.2359L25.6454 32.2707C24.0782 31.5662 22.653 30.585 21.4393 29.3748L21.4378 29.3732C20.114 28.0055 18.9137 26.5253 17.8508 24.9494L17.7758 24.8322C16.7209 23.464 16.109 21.8106 16.0206 20.0902L16.019 20.0696V19.8732C16.0424 19.1383 16.2163 18.4158 16.5301 17.7497C16.8439 17.0837 17.2911 16.4879 17.8444 15.9988L17.8492 15.9941C18.1909 15.6562 18.6513 15.4627 19.1337 15.4542H19.1353C19.2964 15.4589 19.4512 15.4716 19.6012 15.4937L19.5804 15.4906C19.7193 15.5112 19.8804 15.5238 20.0464 15.527H20.0511C20.2835 15.5046 20.5165 15.5616 20.7117 15.6885L20.7085 15.6869C20.8793 15.8737 21.0101 16.1002 21.0883 16.3487L21.0915 16.3614C21.2234 16.6886 21.4957 17.4085 21.9085 18.5211C22.1239 19.0182 22.3345 19.631 22.5036 20.2612L22.526 20.3609C22.4109 20.912 22.1111 21.4081 21.6755 21.7685L21.6707 21.7716C21.1016 22.3691 20.817 22.7491 20.817 22.9116C20.8231 23.0449 20.868 23.1736 20.9463 23.2821L20.9447 23.2806C21.5618 24.5465 22.4151 25.6849 23.4594 26.6356L23.4674 26.6435C24.5606 27.6208 25.7863 28.4415 27.1086 29.0819L27.2028 29.123C27.3645 29.2272 27.5512 29.2867 27.7437 29.2956H27.7469C27.9947 29.2956 28.4405 28.8987 29.084 28.105C29.7276 27.3112 30.1552 26.9143 30.3669 26.9143L30.3685 26.9159ZM25.3471 39.9245H25.3822C27.4773 39.9275 29.5501 39.4966 31.4679 38.6594L31.3706 38.6974C35.1299 37.1236 38.0611 34.215 39.6088 30.5845L39.6471 30.4847C40.429 28.7225 40.8837 26.6673 40.8837 24.5076C40.8837 22.348 40.429 20.2928 39.6088 18.4324L39.6471 18.5306C38.0611 14.8002 35.1299 11.8917 31.4711 10.3558L31.3706 10.3178C29.5946 9.54201 27.5235 9.09077 25.3471 9.09077C23.1706 9.09077 21.0995 9.54201 19.2246 10.3558L19.3235 10.3178C15.5642 11.8917 12.633 14.8002 11.0853 18.4308L11.047 18.5306C10.2243 20.4238 9.80333 22.4649 9.81037 24.5266C9.80522 27.7864 10.8563 30.9615 12.8086 33.5833L12.7782 33.5421L10.8236 39.2627L16.8104 37.3722C19.3114 39.0437 22.2599 39.9327 25.2752 39.9245H25.3502H25.3471ZM25.3471 6.00011H25.3997C27.9974 6.00011 30.4674 6.54161 32.6997 7.51852L32.5832 7.4726C37.0909 9.36785 40.6061 12.8559 42.4698 17.2085L42.5161 17.3288C43.4543 19.4457 44 21.9141 44 24.5092C44 27.1043 43.4543 29.5727 42.4698 31.8068L42.5161 31.6896C40.6061 36.1625 37.0909 39.6506 32.7045 41.4999L32.5832 41.5458C30.4658 42.4768 27.9958 43.0183 25.3981 43.0183H25.3439H25.3471H25.2625C21.9771 43.0183 18.8927 42.1618 16.2248 40.6623L16.3158 40.7098L6 44L9.36519 34.0583C7.60858 31.191 6.68423 27.898 6.6941 24.5425C6.6941 21.9363 7.23981 19.4568 8.22431 17.2101L8.17804 17.3288C10.088 12.8559 13.6032 9.36785 17.9896 7.51852L18.1109 7.4726C20.3772 6.49299 22.824 5.99156 25.296 6.00011H25.3486H25.3455H25.3471Z" fill="white"/>
</svg>
