<svg width="70" height="70" viewBox="0 0 70 70" fill="none" xmlns="http://www.w3.org/2000/svg">
<path d="M8.75 48.125H4.375V8.75C4.37616 7.59003 4.83747 6.47791 5.65769 5.65769C6.47791 4.83747 7.59003 4.37616 8.75 4.375H48.125V8.75H8.75V48.125ZM45.9375 37.1875C47.2354 37.1875 48.5042 36.8026 49.5834 36.0815C50.6626 35.3604 51.5038 34.3355 52.0005 33.1364C52.4972 31.9372 52.6271 30.6177 52.3739 29.3447C52.1207 28.0717 51.4957 26.9024 50.5779 25.9846C49.6601 25.0668 48.4908 24.4418 47.2178 24.1886C45.9448 23.9354 44.6253 24.0653 43.4261 24.562C42.227 25.0587 41.2021 25.8999 40.481 26.9791C39.7599 28.0583 39.375 29.3271 39.375 30.625C39.3767 32.365 40.0687 34.0331 41.299 35.2635C42.5294 36.4938 44.1976 37.1858 45.9375 37.1875ZM45.9375 28.4375C46.3701 28.4375 46.7931 28.5658 47.1528 28.8062C47.5125 29.0465 47.7929 29.3882 47.9585 29.7879C48.1241 30.1876 48.1674 30.6274 48.083 31.0518C47.9986 31.4761 47.7902 31.8659 47.4843 32.1718C47.1784 32.4777 46.7886 32.6861 46.3643 32.7705C45.9399 32.8549 45.5001 32.8116 45.1004 32.646C44.7007 32.4804 44.359 32.2 44.1187 31.8403C43.8783 31.4806 43.75 31.0576 43.75 30.625C43.75 30.0448 43.9805 29.4884 44.3907 29.0782C44.8009 28.668 45.3573 28.4375 45.9375 28.4375Z" fill="white"/>
<path d="M61.25 15.3125H19.6875C18.5275 15.3137 17.4154 15.775 16.5952 16.5952C15.775 17.4154 15.3137 18.5275 15.3125 19.6875V61.25C15.3137 62.41 15.775 63.5221 16.5952 64.3423C17.4154 65.1625 18.5275 65.6238 19.6875 65.625H61.25C62.41 65.6238 63.5221 65.1625 64.3423 64.3423C65.1625 63.5221 65.6238 62.41 65.625 61.25V19.6875C65.6238 18.5275 65.1625 17.4154 64.3423 16.5952C63.5221 15.775 62.41 15.3137 61.25 15.3125ZM61.25 61.25H19.6875V48.125L28.4375 39.3816L40.6569 51.6009C41.4773 52.4211 42.5899 52.8819 43.75 52.8819C44.9101 52.8819 46.0227 52.4211 46.8431 51.6009L50.3125 48.1316L61.25 59.0625V61.25ZM61.25 52.8763L53.4056 45.0319C52.5852 44.2117 51.4726 43.7509 50.3125 43.7509C49.1524 43.7509 48.0398 44.2117 47.2194 45.0319L43.75 48.5013L31.5306 36.2819C30.7102 35.4617 29.5976 35.0009 28.4375 35.0009C27.2774 35.0009 26.1648 35.4617 25.3444 36.2819L19.6875 41.9388V19.6875H61.25V52.8763Z" fill="white"/>
</svg>
