<svg width="124" height="124" viewBox="0 0 124 124" fill="none" xmlns="http://www.w3.org/2000/svg">
<path d="M106.562 13.5625H17.4375C15.2941 13.5625 13.5625 15.2941 13.5625 17.4375V106.562C13.5625 108.706 15.2941 110.438 17.4375 110.438H106.562C108.706 110.438 110.438 108.706 110.438 106.562V17.4375C110.438 15.2941 108.706 13.5625 106.562 13.5625ZM101.719 101.719H22.2812V22.2812H101.719V101.719Z" fill="#83C5BE"/>
<path d="M22.2812 101.719H101.719V22.2812H22.2812V101.719ZM38.0234 57.1805H43.7027C44.9379 57.1805 46.1125 57.7738 46.8391 58.791L55.4609 70.7551L74.4969 44.3566C75.2234 43.3516 76.3859 42.7461 77.6332 42.7461H83.3125C84.0996 42.7461 84.5598 43.6422 84.0996 44.284L58.5973 79.6434C58.2408 80.1409 57.7709 80.5462 57.2266 80.8259C56.6822 81.1055 56.079 81.2514 55.467 81.2514C54.855 81.2514 54.2518 81.1055 53.7074 80.8259C53.163 80.5462 52.6932 80.1409 52.3367 79.6434L37.2363 58.7184C36.7762 58.0766 37.2363 57.1805 38.0234 57.1805Z" fill="#83C5BE" fill-opacity="0.13"/>
<path d="M52.3363 79.6434C52.6927 80.1409 53.1626 80.5462 53.707 80.8259C54.2514 81.1055 54.8546 81.2514 55.4666 81.2514C56.0786 81.2514 56.6818 81.1055 57.2261 80.8259C57.7705 80.5462 58.2404 80.1409 58.5968 79.6434L84.0992 44.284C84.5594 43.6422 84.0992 42.7461 83.3121 42.7461H77.6328C76.3855 42.7461 75.223 43.3516 74.4965 44.3566L55.4605 70.7551L46.8386 58.791C46.1121 57.7738 44.9375 57.1805 43.7023 57.1805H38.023C37.2359 57.1805 36.7758 58.0766 37.2359 58.7184L52.3363 79.6434Z" fill="#83C5BE"/>
</svg>
