<svg width="158" height="169" viewBox="0 0 158 169" fill="none" xmlns="http://www.w3.org/2000/svg">
<path fill-rule="evenodd" clip-rule="evenodd" d="M155.092 1.03632L0.81918 42.9315C0.81918 42.9315 0.682609 42.9314 0.682609 43.0685C0.682609 43.0685 0.54612 43.0685 0.54612 43.2055C0.409599 43.2055 0.409632 43.3425 0.409632 43.3425L0.27306 43.4796C0.194607 43.5584 0.161248 43.5918 0.147064 43.6321C0.136566 43.6618 0.136572 43.6953 0.136572 43.7536C0.136572 43.8221 0.102429 43.8907 0.0682859 43.9592C0.0341429 44.0277 0 44.0963 0 44.1648V44.3018V44.5758V44.7128C0 44.8498 4.99679e-05 44.8499 0.136467 44.9868L0.136572 44.9869L77.4078 168.452L77.5444 168.589C77.5444 168.726 77.6809 168.726 77.8174 168.726L77.954 168.863C78.0905 169 78.227 169 78.3635 169H78.6366H78.9096C78.9779 169 79.0462 168.966 79.1144 168.932C79.1827 168.897 79.2509 168.863 79.3192 168.863C79.4036 168.863 79.4358 168.811 79.4803 168.738C79.5079 168.694 79.5401 168.641 79.5922 168.589C79.5922 168.589 79.5922 168.452 79.7287 168.452L79.8652 168.315L156.801 3.48122C157.307 2.67229 157.657 1.65655 157 1C156.4 0.399811 155.62 0.700189 155.092 1.03632ZM77.1348 163.519L82.0496 87.3295L4.50528 47.4535L77.1348 163.519ZM4.50528 44.4388L83.1418 85L151.812 4.42578L4.50528 44.4388ZM84.7801 87.0555L80.0018 160.778L150.31 10.181L84.7801 87.0555Z" fill="#FEEAFA"/>
</svg>
