<svg width="167" height="173" viewBox="0 0 167 173" fill="none" xmlns="http://www.w3.org/2000/svg">
<path d="M166.878 51.8393V51.7179C166.878 51.5965 166.757 51.4751 166.757 51.4751C166.757 51.4751 166.757 51.3537 166.635 51.3537C166.513 51.2323 166.513 51.2323 166.392 51.1109L166.27 50.9895L89.0342 0.242822C89.0342 0.242822 88.9126 0.242814 88.9126 0.121411C88.791 0.121411 88.791 0 88.6693 0C88.5477 0 88.5477 0 88.4261 0C88.3045 0 88.3045 0 88.1828 0C88.0612 0 88.0612 0 87.9396 0H87.8179L22.1369 25.9803C22.0153 25.9803 21.8937 26.1018 21.8937 26.1018C21.772 26.2232 21.772 26.2232 21.6504 26.3446C21.6504 26.3446 21.6504 26.3445 21.5288 26.4659C21.5288 26.5874 21.4071 26.5874 21.4071 26.7088V26.8302L0 116.669V116.79C0 116.912 0 117.033 0 117.154V117.276C0 117.397 -1.17809e-07 117.519 0.121631 117.519L0.243263 117.64C0.243263 117.761 0.364895 117.761 0.486526 117.883L69.8165 172.636C69.9381 172.757 70.0597 172.757 70.1814 172.879C70.1814 172.879 70.1814 172.879 70.303 172.879C70.4246 172.879 70.5463 173 70.6679 173C70.7895 173 70.7895 173 70.9112 173H71.0328H71.1544L153.377 140.464C153.377 140.464 153.499 140.464 153.499 140.342C153.499 140.342 153.621 140.342 153.621 140.221C153.742 140.1 153.864 139.978 153.985 139.857C154.107 139.735 154.107 139.614 154.107 139.371L167 52.0821C167 52.0821 167 52.0821 167 51.9607C167 51.9607 166.878 51.9607 166.878 51.8393ZM151.674 137.793L102.292 127.231L106.549 98.3368L114.82 42.4912L164.202 53.0533L151.674 137.793ZM22.6235 33.2646L30.2862 73.2063L4.13547 110.72L22.6235 33.2646ZM87.9396 2.79227L111.901 40.306L72.2491 55.967L32.5972 71.6281L24.2047 27.9228L87.9396 2.79227ZM34.0568 73.8133L112.144 42.9768L99.8594 125.895L66.8973 99.9151L34.0568 73.8133ZM101.441 129.659L148.39 139.614L74.0736 168.994L101.441 129.659ZM117.739 40.4274L114.577 39.699L101.927 19.7888L92.8048 5.46316L159.459 49.2898L117.739 40.4274ZM25.6642 84.1326L31.7458 75.2702L84.7771 117.154L99.008 128.445L70.303 169.965L3.04079 116.79L25.6642 84.1326Z" fill="#546A7B"/>
</svg>
