<svg width="24" height="24" viewBox="0 0 24 24" fill="none" xmlns="http://www.w3.org/2000/svg">
<path fill-rule="evenodd" clip-rule="evenodd" d="M1.50012 12C1.50012 11.8011 1.57914 11.6103 1.71979 11.4696C1.86045 11.329 2.05121 11.25 2.25012 11.25H19.9396L15.2191 6.53097C15.1494 6.46124 15.0941 6.37846 15.0563 6.28735C15.0186 6.19624 14.9992 6.09859 14.9992 5.99997C14.9992 5.90135 15.0186 5.8037 15.0563 5.7126C15.0941 5.62149 15.1494 5.5387 15.2191 5.46897C15.2889 5.39924 15.3716 5.34392 15.4627 5.30619C15.5539 5.26845 15.6515 5.24902 15.7501 5.24902C15.8487 5.24902 15.9464 5.26845 16.0375 5.30619C16.1286 5.34392 16.2114 5.39924 16.2811 5.46897L22.2811 11.469C22.351 11.5386 22.4064 11.6214 22.4442 11.7125C22.482 11.8036 22.5015 11.9013 22.5015 12C22.5015 12.0986 22.482 12.1963 22.4442 12.2874C22.4064 12.3785 22.351 12.4613 22.2811 12.531L16.2811 18.531C16.2114 18.6007 16.1286 18.656 16.0375 18.6938C15.9464 18.7315 15.8487 18.7509 15.7501 18.7509C15.6515 18.7509 15.5539 18.7315 15.4627 18.6938C15.3716 18.656 15.2889 18.6007 15.2191 18.531C15.1494 18.4612 15.0941 18.3785 15.0563 18.2873C15.0186 18.1962 14.9992 18.0986 14.9992 18C14.9992 17.9014 15.0186 17.8037 15.0563 17.7126C15.0941 17.6215 15.1494 17.5387 15.2191 17.469L19.9396 12.75H2.25012C2.05121 12.75 1.86045 12.671 1.71979 12.5303C1.57914 12.3896 1.50012 12.1989 1.50012 12Z" fill="#131721"/>
</svg>
