<svg width="30" height="30" viewBox="0 0 30 30" fill="none" xmlns="http://www.w3.org/2000/svg">
<path d="M15 25C20.5228 25 25 20.5228 25 15C25 9.47715 20.5228 5 15 5C9.47715 5 5 9.47715 5 15C5 20.5228 9.47715 25 15 25Z" stroke="white" stroke-miterlimit="10"/>
<path d="M14.9998 13.4615C16.6991 13.4615 18.0767 12.0839 18.0767 10.3846C18.0767 8.68526 16.6991 7.30768 14.9998 7.30768C13.3004 7.30768 11.9229 8.68526 11.9229 10.3846C11.9229 12.0839 13.3004 13.4615 14.9998 13.4615Z" stroke="white" stroke-miterlimit="10"/>
<path d="M8.07715 22.3077C8.07715 18.4892 11.1817 15 15.0002 15C18.8187 15 21.9233 18.4892 21.9233 22.3077" stroke="white" stroke-miterlimit="10"/>
</svg>
