<svg width="98" height="98" viewBox="0 0 98 98" fill="none" xmlns="http://www.w3.org/2000/svg">
<path d="M49 97C75.5096 97 97 75.5096 97 49C97 22.4903 75.5096 1 49 1C22.4903 1 1 22.4903 1 49C1 75.5096 22.4903 97 49 97Z" stroke="#131721" stroke-width="2" stroke-miterlimit="10"/>
<path d="M48.9993 41.6156C57.1562 41.6156 63.7686 35.0032 63.7686 26.8464C63.7686 18.6896 57.1562 12.0771 48.9993 12.0771C40.8425 12.0771 34.2301 18.6896 34.2301 26.8464C34.2301 35.0032 40.8425 41.6156 48.9993 41.6156Z" stroke="#131721" stroke-width="2" stroke-miterlimit="10"/>
<path d="M15.7699 84.0769C15.7699 65.7482 30.6719 49 49.0007 49C67.3294 49 82.2314 65.7482 82.2314 84.0769" stroke="#131721" stroke-width="2" stroke-miterlimit="10"/>
</svg>
