<svg width="23" height="23" viewBox="0 0 23 23" fill="none" xmlns="http://www.w3.org/2000/svg">
<path d="M18.375 11.5C18.375 11.3177 18.4474 11.1428 18.5764 11.0139C18.7053 10.8849 18.8802 10.8125 19.0625 10.8125C19.2448 10.8125 19.4197 10.8849 19.5486 11.0139C19.6776 11.1428 19.75 11.3177 19.75 11.5V19.0625C19.75 19.2448 19.6776 19.4197 19.5486 19.5486C19.4197 19.6776 19.2448 19.75 19.0625 19.75H3.9375C3.75516 19.75 3.5803 19.6776 3.45136 19.5486C3.32243 19.4197 3.25 19.2448 3.25 19.0625V3.9375C3.25 3.75516 3.32243 3.5803 3.45136 3.45136C3.5803 3.32243 3.75516 3.25 3.9375 3.25H11.5C11.6823 3.25 11.8572 3.32243 11.9861 3.45136C12.1151 3.5803 12.1875 3.75516 12.1875 3.9375C12.1875 4.11984 12.1151 4.2947 11.9861 4.42364C11.8572 4.55257 11.6823 4.625 11.5 4.625H4.625V18.375H18.375V11.5Z" fill="white"/>
<path d="M10.5966 12.4075L11.731 12.2452L18.6995 5.2781C18.7651 5.21468 18.8175 5.13882 18.8535 5.05494C18.8896 4.97106 18.9085 4.88085 18.9093 4.78956C18.9101 4.69828 18.8927 4.60775 18.8582 4.52326C18.8236 4.43877 18.7725 4.36201 18.708 4.29745C18.6434 4.2329 18.5667 4.18185 18.4822 4.14729C18.3977 4.11272 18.3072 4.09532 18.2159 4.09612C18.1246 4.09691 18.0344 4.11588 17.9505 4.15191C17.8666 4.18794 17.7908 4.24031 17.7274 4.30598L10.7575 11.2731L10.5952 12.4075H10.5966ZM19.6716 3.33248C19.8633 3.52402 20.0153 3.75144 20.119 4.00176C20.2228 4.25208 20.2762 4.52039 20.2762 4.79135C20.2762 5.06231 20.2228 5.33062 20.119 5.58094C20.0153 5.83126 19.8633 6.05869 19.6716 6.25023L12.5422 13.3796C12.4371 13.4851 12.3005 13.5536 12.1531 13.5748L9.88435 13.8993C9.77862 13.9145 9.67081 13.9049 9.56946 13.8711C9.46811 13.8374 9.37602 13.7805 9.30049 13.705C9.22495 13.6294 9.16806 13.5373 9.13432 13.436C9.10058 13.3346 9.09092 13.2268 9.1061 13.1211L9.4306 10.8523C9.45144 10.7051 9.51946 10.5685 9.62448 10.4632L16.7552 3.33385C17.142 2.94719 17.6665 2.72998 18.2134 2.72998C18.7603 2.72998 19.2848 2.94719 19.6716 3.33385V3.33248Z" fill="white"/>
</svg>
