<svg width="24" height="24" viewBox="0 0 24 24" fill="none" xmlns="http://www.w3.org/2000/svg">
<path fill-rule="evenodd" clip-rule="evenodd" d="M1.5 14.25C1.5 8.4 6.15 3.75 12 3.75C17.85 3.75 22.5 8.4 22.5 14.25H21C21 9.3 16.95 5.25 12 5.25C7.05 5.25 3 9.3 3 14.25H1.5ZM7.5 14.25C7.5 11.7 9.45 9.75 12 9.75C14.55 9.75 16.5 11.7 16.5 14.25C16.5 16.8 14.55 18.75 12 18.75C9.45 18.75 7.5 16.8 7.5 14.25ZM9 14.25C9 15.9 10.35 17.25 12 17.25C13.65 17.25 15 15.9 15 14.25C15 12.6 13.65 11.25 12 11.25C10.35 11.25 9 12.6 9 14.25Z" fill="#ADB5BD"/>
</svg>
