<svg width="51" height="51" viewBox="0 0 51 51" fill="none" xmlns="http://www.w3.org/2000/svg">
<path d="M30.4914 50.6875V25.9816C30.4914 19.2496 32.2888 13.7267 35.8836 9.41299C39.4784 5.03391 44.3476 2.12541 50.4914 0.6875V11.6679C48.596 12.2561 47.06 12.9751 45.8836 13.8248C44.7071 14.6744 43.7921 15.6875 43.1385 16.864C42.4849 18.0404 42.06 19.413 41.864 20.9816C41.6679 22.4849 41.5699 24.1516 41.5699 25.9816V28.6287H50.4914V50.6875H30.4914ZM0.6875 50.6875V25.9816C0.6875 19.2496 2.48489 13.7267 6.07966 9.41299C9.67443 5.03391 14.5437 2.12541 20.6875 0.6875V11.6679C18.7921 12.2561 17.2561 12.9751 16.0797 13.8248C14.9032 14.6744 13.9882 15.6875 13.3346 16.864C12.7463 18.0404 12.3215 19.413 12.06 20.9816C11.864 22.4849 11.7659 24.1516 11.7659 25.9816V28.6287H20.6875V50.6875H0.6875Z" fill="black"/>
</svg>
