<svg width="70" height="70" viewBox="0 0 70 70" fill="none" xmlns="http://www.w3.org/2000/svg">
<path d="M35.0002 64.1667C18.8727 64.1667 5.8335 51.1275 5.8335 35C5.8335 18.8726 18.8727 5.83334 35.0002 5.83334C51.1276 5.83334 64.1668 18.8726 64.1668 35C64.1668 51.1275 51.1276 64.1667 35.0002 64.1667ZM35.0002 9.26472C20.76 9.26472 9.26487 20.7598 9.26487 35C9.26487 49.2402 20.76 60.7353 35.0002 60.7353C49.2404 60.7353 60.7355 49.2402 60.7355 35C60.7355 20.7598 49.2404 9.26472 35.0002 9.26472Z" fill="#FFDDD2"/>
<path d="M49.4752 37.9167L35.0002 23.5225L20.5251 37.9167L18.0835 35.4887L35.0002 18.6667L51.9168 35.4887L49.4752 37.9167Z" fill="#FFDDD2"/>
<path d="M33.25 21H36.75V50.1667H33.25V21Z" fill="#FFDDD2"/>
</svg>
