<svg width="51" height="51" viewBox="0 0 51 51" fill="none" xmlns="http://www.w3.org/2000/svg">
<path d="M20.6873 0.687497L20.6873 25.3934C20.6873 32.1254 18.8899 37.6483 15.2951 41.962C11.7004 46.3411 6.83108 49.2496 0.687289 50.6875L0.68729 39.7071C2.58271 39.1189 4.11866 38.3999 5.29513 37.5502C6.4716 36.7006 7.38664 35.6875 8.04023 34.511C8.69383 33.3346 9.11866 31.962 9.31474 30.3934C9.51082 28.8901 9.60886 27.2234 9.60886 25.3934L9.60886 22.7463L0.687291 22.7463L0.687293 0.687495L20.6873 0.687497ZM50.4912 0.687499L50.4912 25.3934C50.4912 32.1254 48.6938 37.6483 45.0991 41.962C41.5043 46.3411 36.635 49.2496 30.4912 50.6875L30.4912 39.7071C32.3866 39.1189 33.9226 38.3999 35.0991 37.5502C36.2755 36.7006 37.1906 35.6875 37.8442 34.511C38.4324 33.3346 38.8572 31.962 39.1187 30.3934C39.3147 28.8901 39.4128 27.2234 39.4128 25.3934L39.4128 22.7463L30.4912 22.7463L30.4912 0.687497L50.4912 0.687499Z" fill="black"/>
</svg>
