<svg width="71" height="71" viewBox="0 0 71 71" fill="none" xmlns="http://www.w3.org/2000/svg">
<path d="M59.5954 30.2223C59.5926 30.2077 59.5989 30.1922 59.5938 30.1776C59.5902 30.1677 59.5803 30.1629 59.5756 30.1526C59.5613 30.1217 59.5407 30.0987 59.5165 30.0746C59.4987 30.0567 59.4844 30.0397 59.4634 30.0274C59.4551 30.0227 59.4511 30.0131 59.4428 30.0092C59.4187 29.9973 59.3921 30.0017 59.3664 29.9969C59.3485 29.9933 59.3339 29.9811 59.3156 29.9811H54.2126L54.2118 16.9302C54.2118 16.767 54.0791 16.6343 53.9158 16.6343H17.0851C16.9218 16.6343 16.7891 16.767 16.7891 16.9302V29.9811H11.686C11.6678 29.9811 11.6535 29.9933 11.6357 29.9969C11.6104 30.0009 11.5838 29.9973 11.5592 30.0092C11.5505 30.0131 11.547 30.0227 11.5386 30.0274C11.5172 30.0397 11.5026 30.0571 11.4855 30.0746C11.4614 30.0987 11.4412 30.1217 11.4265 30.1526C11.4218 30.1621 11.4119 30.1669 11.4075 30.1776C11.4023 30.1922 11.4087 30.2077 11.4063 30.2231C11.4023 30.2414 11.3905 30.2572 11.3905 30.2766V54.3203C11.3905 54.4835 11.5232 54.6162 11.6864 54.6162H59.3153C59.4785 54.6162 59.6112 54.4835 59.6112 54.3203L59.6108 30.2766C59.6108 30.2572 59.5985 30.2414 59.5958 30.2223H59.5954ZM54.2117 30.5726H58.4813L54.2117 34.0402V30.5726ZM17.381 30.2766V17.2268H53.6204L53.62 30.2766V34.5212L38.2272 47.0243L35.5001 49.2387L32.773 47.0239L17.3802 34.5208L17.381 30.2766ZM16.7891 30.5726V34.0402L12.5195 30.5726H16.7891ZM59.0199 54.0239H11.9824V30.8982L16.8993 34.8919L32.4007 47.4833L35.3147 49.8498C35.369 49.8942 35.4355 49.916 35.5009 49.916C35.5667 49.916 35.6336 49.8942 35.6871 49.8498L38.6012 47.4833L54.1025 34.8919L59.0194 30.8982L59.0199 54.0239Z" fill="#FFFCF2" stroke="#FFFCF2" stroke-width="0.5"/>
<path d="M40.9619 37.6925C41.0051 37.7154 41.0519 37.7269 41.099 37.7269C41.1604 37.7269 41.2214 37.7079 41.2729 37.6703C41.3641 37.6041 41.4096 37.4916 41.3906 37.381L40.347 31.2993L44.7655 26.9921C44.8467 26.9133 44.8756 26.7956 44.8407 26.689C44.8059 26.582 44.7128 26.504 44.6022 26.4877L38.4951 25.6002L35.7644 20.0664C35.665 19.8639 35.333 19.8639 35.2343 20.0664L32.5037 25.6002L26.3965 26.4877C26.2852 26.5036 26.1925 26.5816 26.1576 26.689C26.1228 26.796 26.1517 26.9133 26.2321 26.9921L30.6514 31.2993L29.6082 37.381C29.5891 37.4924 29.6347 37.6041 29.7258 37.6703C29.8174 37.7364 29.9382 37.7455 30.0376 37.6928L35.4998 34.8212L40.9619 37.6925ZM30.2937 36.8901L31.2616 31.2458C31.2782 31.15 31.2461 31.0517 31.1764 30.9843L27.0748 26.987L32.7426 26.1633C32.8388 26.1499 32.9224 26.0888 32.9648 26.0017L35.5002 20.8652L38.0342 26.0009C38.077 26.088 38.161 26.1486 38.2565 26.1625L43.9246 26.9862L39.8239 30.9835C39.7542 31.0517 39.7221 31.1491 39.7379 31.245L40.7066 36.8893L35.6372 34.2245C35.5948 34.2023 35.5473 34.1908 35.5001 34.1908C35.453 34.1908 35.4055 34.2019 35.3623 34.2253L30.2937 36.8901Z" fill="#FFFCF2" stroke="#FFFCF2" stroke-width="0.5"/>
</svg>
