<svg width="30" height="30" viewBox="0 0 30 30" fill="none" xmlns="http://www.w3.org/2000/svg">
<path d="M8.71146 8.71122C8.79855 8.62391 8.902 8.55464 9.0159 8.50738C9.12979 8.46012 9.2519 8.43579 9.37521 8.43579C9.49852 8.43579 9.62063 8.46012 9.73452 8.50738C9.84842 8.55464 9.95188 8.62391 10.039 8.71122L15.0002 13.6743L19.9615 8.71122C20.0486 8.62405 20.1521 8.55491 20.266 8.50774C20.3799 8.46056 20.5019 8.43628 20.6252 8.43628C20.7485 8.43628 20.8705 8.46056 20.9844 8.50774C21.0983 8.55491 21.2018 8.62405 21.289 8.71122C21.3761 8.79838 21.4453 8.90186 21.4924 9.01575C21.5396 9.12963 21.5639 9.2517 21.5639 9.37497C21.5639 9.49824 21.5396 9.6203 21.4924 9.73419C21.4453 9.84807 21.3761 9.95155 21.289 10.0387L16.3258 15L21.289 19.9612C21.3761 20.0484 21.4453 20.1519 21.4924 20.2657C21.5396 20.3796 21.5639 20.5017 21.5639 20.625C21.5639 20.7482 21.5396 20.8703 21.4924 20.9842C21.4453 21.0981 21.3761 21.2016 21.289 21.2887C21.2018 21.3759 21.0983 21.445 20.9844 21.4922C20.8705 21.5394 20.7485 21.5637 20.6252 21.5637C20.5019 21.5637 20.3799 21.5394 20.266 21.4922C20.1521 21.445 20.0486 21.3759 19.9615 21.2887L15.0002 16.3256L10.039 21.2887C9.9518 21.3759 9.84832 21.445 9.73443 21.4922C9.62054 21.5394 9.49848 21.5637 9.37521 21.5637C9.25194 21.5637 9.12988 21.5394 9.01599 21.4922C8.9021 21.445 8.79863 21.3759 8.71146 21.2887C8.6243 21.2016 8.55515 21.0981 8.50798 20.9842C8.46081 20.8703 8.43653 20.7482 8.43653 20.625C8.43653 20.5017 8.46081 20.3796 8.50798 20.2657C8.55515 20.1519 8.6243 20.0484 8.71146 19.9612L13.6746 15L8.71146 10.0387C8.62415 9.95163 8.55489 9.84818 8.50762 9.73428C8.46036 9.62038 8.43604 9.49828 8.43604 9.37497C8.43604 9.25165 8.46036 9.12955 8.50762 9.01565C8.55489 8.90176 8.62415 8.7983 8.71146 8.71122Z" fill="white"/>
</svg>
