<?xml version="1.0" encoding="UTF-8"?><svg id="Layer_2" xmlns="http://www.w3.org/2000/svg" xmlns:xlink="http://www.w3.org/1999/xlink" viewBox="0 0 159.84 159.84"><defs><style>.cls-1{fill:none;}.cls-2{clip-path:url(#clippath);}.cls-3{fill:#fff;}.cls-4{fill:#95bcdd;}</style><clipPath id="clippath"><rect class="cls-1" x="12.07" y="25.55" width="135.75" height="108.74"/></clipPath></defs><g id="Layer_1-2"><g><rect class="cls-4" x="0" y="0" width="159.84" height="159.84" rx="79.8" ry="79.8"/><g class="cls-2"><path class="cls-3" d="M146.57,52.81c-3.69-9.03-14.78-14.1-31.26-14.27-.57-.48-1.15-.96-1.73-1.42-.11-.09-.23-.18-.34-.26-.25-.19-.5-.38-.75-.56-.43-.32-.85-.63-1.29-.93-.01,0-.03-.02-.04-.03-6.37-4.46-13.65-7.51-21.41-8.91-.11-.02-.23-.04-.34-.06-.51-.09-1.02-.17-1.53-.24-.23-.03-.46-.07-.69-.1-.24-.03-.48-.06-.73-.09-.28-.03-.57-.07-.85-.1-.21-.02-.41-.04-.62-.06-.47-.04-.95-.08-1.43-.11-.13,0-.26-.01-.38-.02-.4-.02-.81-.04-1.21-.06-.15,0-.3-.01-.45-.02-.52-.01-1.04-.02-1.56-.02s-1.07,.01-1.6,.03c-.18,0-.37,.01-.55,.02-.35,.01-.69,.03-1.03,.05-.23,.01-.45,.03-.67,.04-.29,.02-.58,.04-.87,.07-.26,.02-.51,.04-.77,.07-.18,.02-.37,.04-.55,.06-16.44,1.8-31.14,10.91-40.1,25.15-.04,.07-.08,.14-.12,.2-4.38,7.01-7.2,15.09-7.99,23.75-11.68,11.63-16.07,22.99-12.37,32.05,3.77,9.24,15.49,14.06,31.25,14.26,8.22,7.03,18.38,11.47,29.32,12.67,.18,.02,.37,.04,.55,.06,.26,.03,.51,.05,.77,.07,.29,.02,.58,.05,.87,.07,.22,.02,.45,.03,.67,.04,.34,.02,.69,.04,1.03,.05,.18,0,.36,.02,.55,.02,.53,.02,1.06,.02,1.6,.02,8.67,0,16.95-1.97,24.63-5.87,1.17-.59,1.64-2.02,1.04-3.19-.6-1.17-2.02-1.64-3.2-1.04-6.3,3.19-13.05,4.96-20.1,5.29v-14.68c3-.98,6.04-2.08,9.09-3.3,.01,0,.02,0,.03-.01,1.94,.01,7.04,.04,7.05,.04,.43,0,.86-.12,1.23-.34l4.77-2.89,6.12,17.83c.23,.68,.76,1.22,1.44,1.46,.26,.1,.54,.14,.81,.14,.43,0,.86-.12,1.23-.34l5.09-3.08c.68-.41,1.11-1.14,1.14-1.94l.98-24.26,5.78-3.5c3.04-1.84,4.01-5.8,2.17-8.84-1.85-3.03-5.82-4.01-8.86-2.17l-5.78,3.5-21.99-10.35c-.72-.34-1.56-.3-2.25,.12l-5.08,3.08c-.62,.37-1.03,1-1.13,1.72-.09,.71,.14,1.43,.64,1.95l13.01,13.66-4.77,2.89c-.38,.23-.68,.56-.88,.95l-3.22,6.25c-2.21,.87-4.42,1.67-6.61,2.42v-42.23c16.36-.38,31.36-4.68,41.1-11.75,2.57,4.63,4.43,9.73,5.43,15.17,.23,1.29,1.48,2.16,2.76,1.91,1.29-.23,2.15-1.47,1.91-2.76-1.86-10.22-6.51-19.33-13.08-26.61,11.4,1,19.19,4.92,21.71,11.07,2.56,6.28-.36,14.67-8.24,23.62-.87,.99-.77,2.49,.22,3.35,.45,.4,1.01,.59,1.57,.59,.66,0,1.32-.27,1.79-.81,9.13-10.37,12.35-20.51,9.07-28.54m-30.93,68.12l-1.47,.89-5.5-16.03,7.76-4.7-.8,19.84Zm-25.34-38.42l1.47-.88,17.99,8.46-7.76,4.7-11.69-12.28Zm5.8,21.4l19.84-12.01s.09-.05,.13-.08l6.81-4.12c.8-.48,1.84-.23,2.32,.57,.48,.8,.23,1.84-.57,2.32l-6.64,4.02c-.17,.08-.32,.17-.46,.28l-19.68,11.91-3.23-.02,1.48-2.87ZM30.31,82.3h47.27v9.98c-16.34,.38-31.32,4.67-41.07,11.73-3.62-6.49-5.83-13.86-6.2-21.71Zm47.27-4.75H30.31c.37-7.85,2.58-15.22,6.2-21.71,9.74,7.06,24.72,11.35,41.07,11.73v9.98Zm-38.55-25.75c8-11.57,20.8-19.6,35.5-21.2,.17-.02,.34-.04,.52-.05,.25-.02,.49-.05,.74-.07,.24-.02,.48-.04,.72-.06,.21-.01,.42-.03,.64-.04,.14,0,.29-.01,.44-.02V62.82c-15.53-.38-29.62-4.41-38.55-11.02Zm-21.28,53.44c-2.52-6.17,.31-14.41,7.79-23.09,.39,9.68,3.33,18.71,8.17,26.46,.03,.07,.07,.14,.11,.2,1.72,2.73,3.66,5.27,5.77,7.61-11.13-.91-19.18-4.66-21.84-11.18Zm59.83,24.24c-.15,0-.29-.01-.44-.02-.21-.01-.42-.03-.63-.04-.24-.02-.49-.04-.73-.06-.24-.02-.49-.04-.73-.06-.18-.02-.36-.04-.53-.06-8.21-.9-15.82-3.79-22.34-8.19,7.85-.58,16.45-2.16,25.4-4.77v13.2Zm-31.04-12.86c-2.82-2.56-5.34-5.44-7.51-8.58,8.92-6.61,23.02-10.64,38.55-11.02v14.3c-11.18,3.38-21.85,5.14-31.04,5.3Zm35.8-53.81V30.36c.14,0,.27,.01,.41,.02,.14,0,.29,.01,.43,.02,.43,.03,.85,.06,1.28,.1,.17,.01,.33,.03,.5,.05,.27,.03,.53,.05,.8,.08,.23,.03,.45,.05,.67,.08,.19,.02,.38,.05,.57,.08,.94,.13,1.87,.29,2.79,.47,.05,0,.09,.02,.14,.03,6.36,1.29,12.31,3.79,17.57,7.28,.07,.05,.15,.1,.22,.15,.23,.16,.47,.32,.7,.48,.33,.23,.65,.46,.97,.69,.05,.04,.1,.07,.15,.11,4.35,3.22,8.21,7.19,11.38,11.79-8.93,6.62-23.02,10.65-38.56,11.03Z"/></g></g></g></svg>