<?xml version="1.0" encoding="UTF-8"?><svg id="Layer_2" xmlns="http://www.w3.org/2000/svg" xmlns:xlink="http://www.w3.org/1999/xlink" viewBox="0 0 159.84 159.84"><defs><style>.cls-1{fill:none;}.cls-2{clip-path:url(#clippath);}.cls-3{fill:#fff;}.cls-4{fill:#95bcdd;}.cls-5{clip-path:url(#clippath-1);}.cls-6{clip-path:url(#clippath-3);}.cls-7{clip-path:url(#clippath-2);}</style><clipPath id="clippath"><rect class="cls-1" x="22.39" y="25.49" width="115.11" height="105.78"/></clipPath><clipPath id="clippath-1"><rect class="cls-1" x="84.57" y="78.34" width="52.88" height="52.92"/></clipPath><clipPath id="clippath-2"><rect class="cls-1" x="22.39" y="25.49" width="115.11" height="105.78"/></clipPath><clipPath id="clippath-3"><rect class="cls-1" x="22.44" y="39.61" width="74.75" height="91.65"/></clipPath></defs><g id="Layer_1-2"><g><rect class="cls-4" x="0" y="0" width="159.84" height="159.84" rx="79.8" ry="79.8"/><g class="cls-2"><path class="cls-3" d="M76.09,65.3c0,2.23-1.81,4.04-4.03,4.04s-4.03-1.81-4.03-4.04,1.81-4.04,4.03-4.04,4.03,1.81,4.03,4.04"/><path class="cls-3" d="M70.47,46.4c0,1.35-1.1,2.45-2.45,2.45s-2.45-1.1-2.45-2.45,1.1-2.45,2.45-2.45,2.45,1.1,2.45,2.45"/><path class="cls-3" d="M88.81,37.46H53.43c-2.6,0-4.71-2.11-4.71-4.72v-2.53c0-2.61,2.11-4.72,4.71-4.72h35.38c2.6,0,4.71,2.11,4.71,4.72v2.53c0,2.61-2.11,4.72-4.71,4.72"/></g><g class="cls-5"><path class="cls-3" d="M111.03,78.34c-14.59,0-26.42,11.85-26.42,26.46s11.83,26.46,26.42,26.46,26.42-11.85,26.42-26.46-11.83-26.46-26.42-26.46m-20.2,26.46c0-11.17,9.04-20.23,20.2-20.23,4.62,0,8.88,1.55,12.28,4.17l-28.32,28.36c-2.61-3.41-4.16-7.67-4.16-12.3Zm36.72-11.64c2.32,3.29,3.68,7.31,3.68,11.64,0,11.17-9.04,20.23-20.2,20.23-4.33,0-8.34-1.36-11.62-3.68l28.14-28.19Z"/></g><g class="cls-7"><path class="cls-3" d="M56.78,84.21l-19.79,32.61c-.81,1.33,.15,3.04,1.7,3.04h12.05c-.81-.81-1.32-1.93-1.32-3.17,0-2.47,2-4.47,4.47-4.47s4.47,2,4.47,4.47c0,1.24-.5,2.36-1.32,3.17h28.21c-1.29-2.21-2.29-4.58-2.97-7.05-2.34-.74-4.04-2.92-4.04-5.51,0-2.21,1.24-4.14,3.07-5.11,.48-5.56,2.48-10.81,5.8-15.26l-1.66-2.73h-28.68m13.68,6.35c-1.67,0-3.03-1.36-3.03-3.03s1.36-3.03,3.03-3.03,3.03,1.36,3.03,3.03-1.35,3.03-3.03,3.03Z"/><path class="cls-3" d="M91.7,82.05c1.48-1.27,3.07-2.37,4.74-3.31l-7.08-11.84c-.48-.81-.74-1.73-.74-2.67v-24.6h-5.76v26.2c0,.94,.25,1.86,.74,2.67l8.11,13.56"/></g><g class="cls-6"><path class="cls-3" d="M89.94,125.92c-.15-.15-.29-.29-.43-.44H33.71c-4.03,0-6.52-4.41-4.45-7.87l29.38-49.12c.48-.81,.74-1.73,.74-2.67v-26.2h-5.76v24.6c0,.94-.25,1.86-.74,2.67l-28.92,48.34c-4.22,7.05,.85,16.01,9.06,16.01H97.15c-2.62-1.38-5.05-3.17-7.21-5.33"/></g></g></g></svg>