<?xml version="1.0" encoding="UTF-8"?><svg id="Layer_2" xmlns="http://www.w3.org/2000/svg" xmlns:xlink="http://www.w3.org/1999/xlink" viewBox="0 0 159.84 159.84"><defs><style>.cls-1{fill:none;}.cls-2{clip-path:url(#clippath);}.cls-3{fill:#fefefe;}.cls-4{fill:#95bcdd;}</style><clipPath id="clippath"><rect class="cls-1" x="20.7" y="16.17" width="118.5" height="127.5"/></clipPath></defs><g id="Layer_1-2"><g><rect class="cls-4" x="0" y="0" width="159.84" height="159.84" rx="79.8" ry="79.8"/><g class="cls-2"><path class="cls-3" d="M57.01,59.52c0,9.86-7.98,17.85-17.82,17.85s-17.82-7.99-17.82-17.85,7.98-17.85,17.82-17.85,17.82,7.99,17.82,17.85m-17.82,28.05c-9.84,0-17.82,7.99-17.82,17.85s7.98,17.85,17.82,17.85,17.82-7.99,17.82-17.85-7.98-17.85-17.82-17.85Zm81.44-10.2c9.84,0,17.82-7.99,17.82-17.85s-7.98-17.85-17.82-17.85-17.82,7.99-17.82,17.85,7.98,17.85,17.82,17.85Zm0,10.2c-9.84,0-17.82,7.99-17.82,17.85s7.98,17.85,17.82,17.85,17.82-7.99,17.82-17.85-7.98-17.85-17.82-17.85Zm-40.73,20.4c-9.83,0-17.8,7.99-17.8,17.85s7.98,17.85,17.8,17.85,17.83-7.99,17.83-17.85-7.98-17.85-17.83-17.85Zm0-91.8c-9.83,0-17.8,7.99-17.8,17.85s7.98,17.85,17.8,17.85,17.83-7.99,17.83-17.85-7.98-17.85-17.83-17.85Z"/></g></g></g></svg>