<?xml version="1.0" encoding="UTF-8"?><svg id="Layer_2" xmlns="http://www.w3.org/2000/svg" xmlns:xlink="http://www.w3.org/1999/xlink" viewBox="0 0 159.84 159.84"><defs><style>.cls-1{fill:none;}.cls-2{clip-path:url(#clippath);}.cls-3,.cls-4{fill:#fff;}.cls-5{fill:#8abcdf;}.cls-4{fill-rule:evenodd;}</style><clipPath id="clippath"><rect class="cls-1" x="12.05" y="28.54" width="135.75" height="102.75"/></clipPath></defs><g id="Layer_1-2"><g><rect class="cls-5" x="0" y="0" width="159.84" height="159.84" rx="79.8" ry="79.8"/><g class="cls-2"><path class="cls-4" d="M12.75,93.78c0,1.6,1.3,2.89,2.9,2.89s2.9-1.29,2.9-2.89-1.3-2.89-2.9-2.89-2.9,1.3-2.9,2.89Zm28.6-38.56c0,1.6,1.3,2.89,2.9,2.89s2.9-1.29,2.9-2.89-1.3-2.89-2.9-2.89-2.9,1.3-2.9,2.89Zm104.22-2.53c-2.06-2.2-5.53-2.32-7.74-.27l-14.34,13.28-12.88-8.88c-.16-.16-.33-.31-.52-.45l-10.81-7.48c-.56-.39-1.17-.61-1.81-.7l-17.12-4.68s-.06,0-.09-.02c-.24-.06-.48-.09-.72-.12-.13-.02-.26-.04-.39-.04-.18,0-.36,0-.54,.02-.19,.01-.38,.01-.56,.04-.11,.02-.21,.05-.32,.07-.25,.05-.5,.11-.73,.2-.04,.01-.07,.04-.11,.05-1.1,.44-2.05,1.22-2.68,2.26l-4.63,6.57h-15.54c-1.5,0-2.71,1.21-2.71,2.7s1.22,2.7,2.71,2.7h12.08c1.5,0,2.71,1.21,2.71,2.7s-1.22,2.7-2.71,2.7h-4.14c-1.56,2.43-.95,5.66,1.44,7.33,2.46,1.71,5.85,1.12,7.57-1.32l10.12-14.34,7.22,1.97-12.1,17.28H41.08c-1.5,0-2.71,1.21-2.71,2.7s1.22,2.7,2.71,2.7h36.97c1.5,0,2.71,1.21,2.71,2.7s-1.22,2.7-2.71,2.7h-9.41c-.39,.48-.75,1-1,1.61l-1.93,4.59H26.13c-1.5,0-2.71,1.21-2.71,2.7s1.22,2.7,2.71,2.7h42.23c1.5,0,2.71,1.21,2.71,2.7s-1.22,2.7-2.71,2.7h-7.19s-27.07,10.24-27.07,10.24c-3.52,1.33-5.29,5.25-3.95,8.74,1.34,3.5,5.28,5.26,8.79,3.92l29.39-11.12c1.33-.5,2.41-1.38,3.17-2.46,.57-.59,1.05-1.28,1.39-2.07l4.37-10.42,12.97,3.22-12.38,17.55c-2.16,3.06-1.42,7.29,1.67,9.44,3.08,2.15,7.33,1.41,9.5-1.66l17.93-25.42c.83-1.17,1.22-2.51,1.23-3.84,.14-3.15-1.96-6.07-5.16-6.87l-10.36-2.57,14.66-20.93,13.5,9.31c.15,.11,.32,.18,.48,.27,.16,.09,.32,.19,.49,.27,.01,0,.03,0,.04,.01,1.93,.82,4.26,.51,5.89-1.01l17.56-16.26c2.22-2.04,2.34-5.48,.28-7.68Zm-41.14-13.97c2.11-6.12,8.81-9.33,14.9-7.25,6.1,2.08,9.4,8.7,7.29,14.82-2.09,6.06-8.81,9.33-14.9,7.25-6.09-2.08-9.38-8.75-7.29-14.82Z"/><path class="cls-3" d="M15.65,95.96c-1.21,0-2.2-.98-2.2-2.19s.99-2.19,2.2-2.19,2.2,.98,2.2,2.19-.99,2.19-2.2,2.19Zm0-5.77c-1.99,0-3.61,1.61-3.61,3.59s1.62,3.59,3.61,3.59,3.61-1.61,3.61-3.59-1.62-3.59-3.61-3.59Zm28.6-37.16c1.21,0,2.2,.98,2.2,2.19s-.99,2.19-2.2,2.19-2.2-.98-2.2-2.19,.99-2.19,2.2-2.19Zm0,5.77c1.99,0,3.61-1.61,3.61-3.59s-1.62-3.59-3.61-3.59-3.61,1.61-3.61,3.59,1.62,3.59,3.61,3.59Zm100.56,1.06l-17.56,16.26c-1.38,1.28-3.4,1.62-5.14,.88-.01,0-.04-.01-.06-.02-.08-.04-.16-.09-.24-.14l-.16-.09c-.06-.03-.12-.06-.18-.1-.08-.04-.16-.08-.24-.13l-13.5-9.31c-.32-.22-.76-.14-.98,.18l-14.66,20.93c-.13,.19-.16,.43-.08,.65,.08,.22,.26,.38,.49,.43l10.36,2.57c2.81,.7,4.75,3.29,4.63,6.18,0,1.24-.39,2.43-1.1,3.44l-17.93,25.42c-.94,1.33-2.34,2.21-3.95,2.5-1.61,.28-3.23-.08-4.57-1.01-1.34-.93-2.23-2.33-2.51-3.93-.28-1.6,.08-3.21,1.02-4.54l12.38-17.55c.13-.19,.16-.43,.08-.65-.08-.22-.26-.38-.49-.44l-12.97-3.22c-.06-.01-.11-.02-.17-.02-.28,0-.54,.17-.65,.43l-4.37,10.42c-.28,.67-.7,1.3-1.24,1.86-.02,.03-.05,.05-.07,.09-.7,1.01-1.69,1.77-2.84,2.21l-29.39,11.12c-3.15,1.19-6.69-.39-7.89-3.52-1.2-3.13,.39-6.65,3.54-7.84l26.95-10.2h7.06c1.88,0,3.42-1.52,3.42-3.4s-1.53-3.4-3.42-3.4H26.13c-1.11,0-2.01-.9-2.01-2s.9-2,2.01-2h39.57c.28,0,.54-.17,.65-.43l1.93-4.59c.16-.39,.39-.77,.7-1.18h9.07c1.88,0,3.42-1.53,3.42-3.4s-1.53-3.4-3.42-3.4H41.08c-1.11,0-2.01-.9-2.01-2s.9-2,2.01-2h35.17c.23,0,.45-.11,.58-.3l12.1-17.28c.13-.19,.16-.42,.08-.64-.08-.21-.26-.38-.48-.44l-7.22-1.97c-.29-.08-.59,.03-.76,.27l-10.12,14.34c-1.5,2.12-4.45,2.64-6.59,1.15-1.97-1.38-2.57-3.97-1.44-6.06h3.74c1.88,0,3.42-1.53,3.42-3.4s-1.53-3.4-3.42-3.4h-12.08c-1.11,0-2.01-.9-2.01-2s.9-2,2.01-2h15.53c.23,0,.45-.11,.58-.3l4.63-6.57s.02-.03,.03-.04c.54-.9,1.35-1.58,2.33-1.97,.03-.01,.06-.03,.09-.04,.19-.07,.39-.12,.64-.18l.14-.03s.09-.02,.13-.03c.13-.02,.26-.02,.39-.03h.19c.13-.02,.25-.03,.38-.02,.07,0,.13,.01,.2,.02l.14,.02c.19,.02,.41,.05,.62,.1,.02,0,.07,.02,.11,.02l17.09,4.67s.05,.01,.08,.02c.57,.09,1.07,.28,1.51,.59l10.81,7.49c.15,.1,.29,.24,.44,.38,.03,.03,.06,.05,.09,.07l12.88,8.88c.27,.19,.64,.16,.88-.06l14.34-13.28c.93-.86,2.15-1.31,3.42-1.27,1.27,.05,2.45,.58,3.32,1.51,.87,.93,1.32,2.14,1.28,3.4-.04,1.25-.58,2.43-1.51,3.29Zm1.27-7.66c-1.13-1.2-2.65-1.9-4.3-1.95-1.65-.06-3.22,.53-4.43,1.64l-13.92,12.89-12.37-8.53c-.17-.16-.35-.33-.57-.48l-10.81-7.49c-.6-.42-1.29-.69-2.06-.81l-17.08-4.67s-.09-.02-.13-.03c-.28-.07-.55-.11-.78-.13h-.11c-.11-.03-.22-.04-.33-.05-.18,0-.35,0-.52,.01h-.17c-.18,.02-.36,.03-.55,.05-.09,.01-.17,.04-.26,.06l-.09,.02c-.26,.06-.55,.12-.83,.23-.04,.01-.08,.03-.12,.05-1.26,.5-2.3,1.37-3,2.53l-4.41,6.25h-15.17c-1.88,0-3.42,1.52-3.42,3.4s1.53,3.4,3.42,3.4h12.08c1.11,0,2.01,.9,2.01,2s-.9,2-2.01,2h-4.14c-.24,0-.46,.12-.59,.32-1.78,2.77-1.07,6.4,1.63,8.28,2.77,1.93,6.61,1.26,8.55-1.49l9.83-13.94,5.78,1.58-11.32,16.17H41.08c-1.88,0-3.42,1.52-3.42,3.4s1.53,3.4,3.42,3.4h36.97c1.11,0,2.01,.9,2.01,2s-.9,2-2.01,2h-9.41c-.21,0-.41,.09-.55,.26-.5,.62-.85,1.18-1.1,1.78l-1.75,4.16H26.13c-1.88,0-3.42,1.53-3.42,3.4s1.53,3.4,3.42,3.4h42.23c1.11,0,2.01,.9,2.01,2s-.9,2-2.01,2h-7.19c-.1,0-.2,.02-.29,.06l-27.02,10.22c-3.88,1.47-5.83,5.79-4.35,9.65,1.47,3.85,5.83,5.8,9.7,4.33l29.39-11.12c1.4-.53,2.6-1.45,3.46-2.67,.65-.68,1.15-1.43,1.49-2.25l4.14-9.86,11.39,2.83-11.79,16.71c-1.15,1.64-1.6,3.62-1.25,5.59,.35,1.97,1.44,3.68,3.09,4.83,1.28,.89,2.77,1.36,4.3,1.36,.44,0,.88-.04,1.32-.11,1.98-.35,3.7-1.44,4.86-3.07l17.93-25.42c.88-1.24,1.35-2.71,1.36-4.21,.15-3.53-2.24-6.72-5.69-7.57l-9.37-2.33,13.68-19.52,12.92,8.91c.13,.09,.26,.16,.4,.23,.05,.02,.1,.05,.14,.07l.13,.08c.14,.08,.28,.16,.43,.23,.02,0,.04,.02,.07,.02,2.25,.95,4.85,.5,6.63-1.15l17.56-16.26c1.21-1.12,1.91-2.64,1.96-4.28,.06-1.63-.52-3.2-1.65-4.4Zm-40.99-13.27c1.97-5.72,8.26-8.77,14.01-6.81,5.75,1.96,8.83,8.21,6.85,13.93-1.97,5.72-8.26,8.78-14.01,6.81-2.77-.94-5.01-2.92-6.31-5.56-1.3-2.64-1.49-5.61-.54-8.37Zm6.4,15.25c1.33,.45,2.69,.67,4.02,.67,5.17,0,10.01-3.23,11.77-8.35,2.22-6.45-1.24-13.49-7.73-15.71-6.49-2.21-13.58,1.24-15.8,7.68-1.07,3.11-.86,6.46,.61,9.44,1.47,2.98,3.99,5.2,7.12,6.27Z"/></g></g></g></svg>