<?xml version="1.0" encoding="UTF-8"?><svg id="Layer_2" xmlns="http://www.w3.org/2000/svg" xmlns:xlink="http://www.w3.org/1999/xlink" viewBox="0 0 159.84 159.84"><defs><style>.cls-1{fill:none;}.cls-2{clip-path:url(#clippath);}.cls-3{fill:#fff;}.cls-4{fill:#8abcdf;}</style><clipPath id="clippath"><rect class="cls-1" x="30.04" y="21.42" width="99.75" height="117"/></clipPath></defs><g id="Layer_1-2"><g><rect class="cls-4" x="0" y="0" width="159.84" height="159.84" rx="79.8" ry="79.8"/><g class="cls-2"><path class="cls-3" d="M129.27,87.39l-11.38-22.79c-.37-23.88-19.92-43.18-43.88-43.18S30.12,41.1,30.12,65.29c0,11.43,2.66,21.35,5.45,31.83,3.08,11.46,6.25,23.32,6.25,38.37,0,.39,.07,.76,.22,1.12,.15,.36,.36,.67,.63,.95s.59,.49,.95,.63c.36,.15,.73,.22,1.12,.22s.76-.07,1.12-.22c.36-.15,.67-.36,.95-.63s.49-.59,.63-.95c.15-.36,.22-.73,.22-1.12,0-15.82-3.27-28.05-6.44-39.89-2.71-10.1-5.27-19.65-5.27-30.31,0-20.95,17.07-38.02,38.03-38.02s38.03,17.07,38.03,38.02c0,.46,.1,.9,.32,1.3l9.57,19.17h-6.97c-.39,0-.76,.07-1.12,.22-.36,.15-.67,.36-.95,.63-.27,.27-.49,.59-.63,.95-.15,.36-.22,.73-.22,1.12v14.62c0,.38-.04,.76-.12,1.14-.08,.38-.19,.74-.34,1.1-.15,.35-.33,.69-.54,1.01-.21,.32-.46,.61-.73,.88-.27,.27-.57,.51-.89,.73-.32,.21-.66,.39-1.01,.54-.35,.15-.72,.26-1.1,.34-.38,.08-.76,.11-1.14,.12h-14.63c-.39,0-.76,.07-1.12,.22-.36,.15-.67,.36-.95,.63-.27,.27-.49,.59-.63,.95-.15,.36-.22,.73-.22,1.12v23.4c0,.39,.07,.76,.22,1.12,.15,.36,.36,.67,.63,.95,.27,.27,.59,.49,.95,.63,.36,.15,.73,.22,1.12,.22s.76-.07,1.12-.22c.36-.15,.67-.36,.95-.63,.27-.27,.49-.59,.63-.95,.15-.36,.22-.73,.22-1.12v-20.48h11.7c.77,0,1.53-.07,2.28-.22,.75-.15,1.49-.37,2.2-.67s1.38-.65,2.02-1.08,1.23-.91,1.77-1.46c.54-.54,1.03-1.13,1.46-1.77,.43-.64,.79-1.31,1.08-2.02,.29-.71,.52-1.44,.67-2.19,.15-.75,.22-1.51,.22-2.28v-11.7h8.78c.51,0,.98-.13,1.42-.38,.44-.25,.8-.58,1.08-1.01,.26-.43,.4-.9,.42-1.41,.02-.51-.09-.98-.32-1.44Z"/><path class="cls-3" d="M79.85,74.07h-2.63c.17-.82,.4-1.62,.71-2.4,.3-.78,.67-1.53,1.11-2.24s.92-1.39,1.47-2.02,1.15-1.21,1.8-1.74c.65-.53,1.34-1,2.07-1.41,.73-.41,1.49-.76,2.28-1.04,.79-.28,1.59-.49,2.42-.64,.82-.14,1.66-.21,2.49-.21h2.63c-.17,.82-.4,1.62-.71,2.4-.3,.78-.67,1.53-1.11,2.24s-.92,1.39-1.47,2.02-1.15,1.21-1.8,1.74c-.65,.53-1.34,1-2.07,1.41-.73,.41-1.49,.76-2.28,1.04s-1.59,.49-2.42,.64c-.82,.14-1.66,.21-2.49,.21Zm-5.85-7.45c-1.49-2.54-3.43-4.65-5.82-6.36,0-.27-.03-.53-.03-.82,0-2.61,3.3-5.98,5.85-8.06,2.55,2.05,5.85,5.45,5.85,8.06,0,.29-.03,.56-.03,.82-2.4,1.7-4.34,3.82-5.82,6.36Zm-5.85,7.45c-.84,0-1.67-.07-2.49-.21-.82-.14-1.63-.35-2.42-.63-.79-.28-1.55-.63-2.28-1.04-.73-.41-1.42-.88-2.07-1.41s-1.25-1.11-1.8-1.74-1.04-1.31-1.47-2.02c-.43-.72-.8-1.46-1.11-2.24s-.54-1.58-.71-2.4h2.63c.84,0,1.67,.07,2.49,.21s1.63,.35,2.42,.63,1.55,.63,2.28,1.04c.73,.41,1.42,.88,2.07,1.41,.65,.53,1.25,1.11,1.8,1.74s1.04,1.31,1.47,2.02c.43,.72,.8,1.46,1.11,2.24s.54,1.58,.71,2.4h-2.63Zm32.18-14.62c0-.39-.07-.76-.22-1.12-.15-.36-.36-.67-.63-.95-.27-.27-.59-.49-.95-.63-.36-.15-.73-.22-1.12-.22h-5.85c-2.09,.03-4.13,.37-6.12,1.04-1.36-6.38-8.88-11.62-9.81-12.26-.49-.32-1.03-.48-1.62-.48s-1.13,.16-1.62,.48c-.93,.64-8.46,5.88-9.81,12.26-1.99-.66-4.02-1.01-6.12-1.04h-5.85c-.39,0-.76,.07-1.12,.22-.36,.15-.67,.36-.95,.63-.27,.27-.49,.59-.63,.95-.15,.36-.22,.73-.22,1.12,0,.67,.03,1.34,.1,2.01s.16,1.33,.29,1.99c.13,.66,.29,1.31,.49,1.95,.19,.64,.42,1.27,.68,1.89s.54,1.22,.86,1.82,.66,1.17,1.03,1.72c.37,.56,.77,1.1,1.2,1.61,.43,.52,.88,1.01,1.35,1.49,.47,.47,.97,.92,1.49,1.35,.52,.43,1.06,.82,1.61,1.2,.56,.37,1.13,.72,1.72,1.03,.59,.32,1.2,.6,1.82,.86,.62,.26,1.25,.48,1.89,.68,.64,.19,1.29,.36,1.95,.49s1.32,.23,1.99,.29c.67,.07,1.34,.1,2.01,.1h11.7c.67,0,1.34-.03,2.01-.1,.67-.07,1.33-.16,1.99-.29,.66-.13,1.31-.29,1.95-.49,.64-.19,1.27-.42,1.89-.68,.62-.26,1.23-.54,1.82-.86,.59-.32,1.17-.66,1.72-1.03,.56-.37,1.1-.77,1.61-1.2s1.01-.88,1.49-1.35c.47-.47,.92-.97,1.35-1.49,.43-.52,.82-1.06,1.2-1.61,.37-.56,.72-1.13,1.03-1.72s.6-1.2,.86-1.82c.26-.62,.48-1.25,.68-1.89s.36-1.29,.49-1.95c.13-.66,.23-1.32,.29-1.99,.07-.67,.1-1.34,.1-2.01Z"/></g></g></g></svg>