<svg width="440" height="364" viewBox="0 0 440 364" fill="none" xmlns="http://www.w3.org/2000/svg">
<g opacity="0.5">
<mask id="path-1-outside-1_902_921" maskUnits="userSpaceOnUse" x="0" y="0" width="442" height="364" fill="black">
<rect fill="white" width="442" height="364"/>
<path d="M246.029 2.52044H227.017L215.591 25.1482L204.166 2.52044H185.064L206.755 40.621V65.127H224.25V40.7104L246.029 2.52044Z"/>
<path d="M278.665 66.7369C298.749 66.7369 313.031 53.0529 313.031 33.9132C313.031 14.684 298.749 1 278.665 1C258.582 1 244.3 14.7734 244.3 33.9132C244.3 52.9634 258.582 66.7369 278.665 66.7369ZM278.665 50.7275C269.204 50.7275 262.152 43.5725 262.152 33.9132C262.152 24.1644 269.204 17.0094 278.665 17.0094C288.216 17.0094 295.089 24.075 295.089 33.9132C295.089 43.6619 288.216 50.7275 278.665 50.7275Z"/>
<path d="M348.381 66.7369C364.358 66.7369 375.695 56.3621 375.695 40.9788V2.52044H358.11V40.621C358.11 46.7922 354.183 50.7275 348.381 50.7275C342.668 50.7275 338.741 46.7922 338.741 40.621V2.52044H321.156V40.9788C321.156 56.3621 332.492 66.7369 348.381 66.7369Z"/>
<path d="M420.809 65.127H440L427.593 42.4098C433.752 38.7428 437.501 32.3927 437.501 24.701C437.501 11.6431 427.682 2.52044 414.293 2.52044H387.158V65.127H404.385V45.9873H410.633L420.809 65.127ZM404.385 17.9038H412.24C417.06 17.9038 419.827 20.7658 419.827 24.701C419.827 28.5469 417.06 31.4983 412.24 31.4983H404.385V17.9038Z"/>
<path d="M18.4951 148.14V101.275H1V163.881H40.7211V148.14H18.4951Z"/>
<path d="M48.4198 163.881H65.9149V101.275H48.4198V163.881Z"/>
<path d="M117.78 116.926V101.275H77.97V163.881H95.3759V141.969H115.46V126.854H95.3759V116.926H117.78Z"/>
<path d="M144.01 148.945V139.554H164.54V125.423H144.01V116.211H166.861V101.275H126.872V163.881H167.664V148.945H144.01Z"/>
<path d="M199.653 165.491C214.203 165.491 224.646 158.336 224.646 144.652C224.646 130.432 212.686 127.301 203.402 124.976C197.6 123.455 192.87 122.293 192.87 118.715C192.87 115.764 195.815 114.422 198.85 114.422C202.421 114.422 205.366 116.3 205.366 120.325H222.683C222.683 107.535 214.024 99.8438 199.029 99.8438C184.301 99.8438 175.285 106.909 175.285 119.252C175.285 133.472 186.8 136.245 195.815 138.481C201.796 139.912 206.705 141.075 206.705 145.01C206.705 148.409 203.224 150.376 199.653 150.376C195.726 150.376 192.245 148.14 192.245 143.668H174.482C174.482 157.352 184.39 165.491 199.653 165.491Z"/>
<path d="M279.295 101.275H228.059V116.837H245.019V163.881H262.335V116.837H279.295V101.275Z"/>
<path d="M342.699 101.275H323.687L312.262 123.903L300.836 101.275H281.734L303.425 139.375V163.881H320.92V139.465L342.699 101.275Z"/>
<path d="M366.909 148.14V101.275H349.414V163.881H389.135V148.14H366.909Z"/>
<path d="M413.971 148.945V139.554H434.501V125.423H413.971V116.211H436.822V101.275H396.833V163.881H437.626V148.945H413.971Z"/>
<path d="M141.23 200.029V222.657H122.485V200.029H105.08V262.636H122.485V238.666H141.23V262.636H158.547V200.029H141.23Z"/>
<path d="M187.768 247.7V238.309H208.298V224.177H187.768V214.965H210.619V200.029H170.63V262.636H211.423V247.7H187.768Z"/>
<path d="M262.693 262.636H281.705L256.623 200.029H239.752L215.206 262.636H233.683L237.164 252.529H259.301L262.693 262.636ZM255.105 239.024H241.359L248.143 219.616L255.105 239.024Z"/>
<path d="M305.193 246.895V200.029H287.698V262.636H327.419V246.895H305.193Z"/>
<path d="M374.222 200.029H322.986V215.591H339.946V262.636H357.262V215.591H374.222V200.029Z"/>
<path d="M418.078 200.029V222.657H399.333V200.029H381.927V262.636H399.333V238.666H418.078V262.636H435.395V200.029H418.078Z"/>
<path d="M45.1904 363C59.7399 363 70.1834 355.845 70.1834 342.161C70.1834 327.94 58.2225 324.81 48.9393 322.485C43.1374 320.964 38.4066 319.801 38.4066 316.224C38.4066 313.272 41.3522 311.931 44.387 311.931C47.9575 311.931 50.9031 313.809 50.9031 317.834H68.2197C68.2197 305.044 59.5614 297.353 44.5656 297.353C29.8375 297.353 20.8222 304.418 20.8222 316.761C20.8222 330.981 32.3368 333.754 41.3522 335.99C47.3326 337.421 52.242 338.583 52.242 342.519C52.242 345.917 48.7608 347.885 45.1904 347.885C41.2629 347.885 37.7817 345.649 37.7817 341.177H20.0188C20.0188 354.861 29.9268 363 45.1904 363Z"/>
<path d="M105.79 363C121.768 363 133.104 352.625 133.104 337.242V298.784H115.52V336.884C115.52 343.055 111.592 346.991 105.79 346.991C100.077 346.991 96.1499 343.055 96.1499 336.884V298.784H78.5656V337.242C78.5656 352.625 89.9017 363 105.79 363Z"/>
<path d="M171.167 298.784H144.567V361.39H161.794V344.129H171.167C184.467 344.129 194.374 334.559 194.374 321.411C194.374 308.353 184.467 298.784 171.167 298.784ZM169.114 329.103H161.794V313.899H169.114C173.666 313.899 176.612 317.029 176.612 321.501C176.612 325.973 173.666 329.103 169.114 329.103Z"/>
<path d="M228.698 298.784H202.098V361.39H219.326V344.129H228.698C241.998 344.129 251.906 334.559 251.906 321.411C251.906 308.353 241.998 298.784 228.698 298.784ZM226.645 329.103H219.326V313.899H226.645C231.197 313.899 234.143 317.029 234.143 321.501C234.143 325.973 231.197 329.103 226.645 329.103Z"/>
<path d="M290.782 363C310.865 363 325.147 349.316 325.147 330.176C325.147 310.947 310.865 297.263 290.782 297.263C270.698 297.263 256.416 311.037 256.416 330.176C256.416 349.227 270.698 363 290.782 363ZM290.782 346.991C281.32 346.991 274.268 339.836 274.268 330.176C274.268 320.428 281.32 313.272 290.782 313.272C300.333 313.272 307.206 320.338 307.206 330.176C307.206 339.925 300.333 346.991 290.782 346.991Z"/>
<path d="M367.549 361.39H386.74L374.333 338.673C380.492 335.006 384.241 328.656 384.241 320.964C384.241 307.906 374.422 298.784 361.033 298.784H333.898V361.39H351.125V342.25H357.373L367.549 361.39ZM351.125 314.167H358.98C363.8 314.167 366.567 317.029 366.567 320.964C366.567 324.81 363.8 327.761 358.98 327.761H351.125V314.167Z"/>
<path d="M439.773 298.784H388.537V314.346H405.497V361.39H422.813V314.346H439.773V298.784Z"/>
</mask>
<path d="M246.029 2.52044H227.017L215.591 25.1482L204.166 2.52044H185.064L206.755 40.621V65.127H224.25V40.7104L246.029 2.52044Z" stroke="#0F80AA" stroke-width="2" mask="url(#path-1-outside-1_902_921)"/>
<path d="M278.665 66.7369C298.749 66.7369 313.031 53.0529 313.031 33.9132C313.031 14.684 298.749 1 278.665 1C258.582 1 244.3 14.7734 244.3 33.9132C244.3 52.9634 258.582 66.7369 278.665 66.7369ZM278.665 50.7275C269.204 50.7275 262.152 43.5725 262.152 33.9132C262.152 24.1644 269.204 17.0094 278.665 17.0094C288.216 17.0094 295.089 24.075 295.089 33.9132C295.089 43.6619 288.216 50.7275 278.665 50.7275Z" stroke="#0F80AA" stroke-width="2" mask="url(#path-1-outside-1_902_921)"/>
<path d="M348.381 66.7369C364.358 66.7369 375.695 56.3621 375.695 40.9788V2.52044H358.11V40.621C358.11 46.7922 354.183 50.7275 348.381 50.7275C342.668 50.7275 338.741 46.7922 338.741 40.621V2.52044H321.156V40.9788C321.156 56.3621 332.492 66.7369 348.381 66.7369Z" stroke="#0F80AA" stroke-width="2" mask="url(#path-1-outside-1_902_921)"/>
<path d="M420.809 65.127H440L427.593 42.4098C433.752 38.7428 437.501 32.3927 437.501 24.701C437.501 11.6431 427.682 2.52044 414.293 2.52044H387.158V65.127H404.385V45.9873H410.633L420.809 65.127ZM404.385 17.9038H412.24C417.06 17.9038 419.827 20.7658 419.827 24.701C419.827 28.5469 417.06 31.4983 412.24 31.4983H404.385V17.9038Z" stroke="#0F80AA" stroke-width="2" mask="url(#path-1-outside-1_902_921)"/>
<path d="M18.4951 148.14V101.275H1V163.881H40.7211V148.14H18.4951Z" stroke="#0F80AA" stroke-width="2" mask="url(#path-1-outside-1_902_921)"/>
<path d="M48.4198 163.881H65.9149V101.275H48.4198V163.881Z" stroke="#0F80AA" stroke-width="2" mask="url(#path-1-outside-1_902_921)"/>
<path d="M117.78 116.926V101.275H77.97V163.881H95.3759V141.969H115.46V126.854H95.3759V116.926H117.78Z" stroke="#0F80AA" stroke-width="2" mask="url(#path-1-outside-1_902_921)"/>
<path d="M144.01 148.945V139.554H164.54V125.423H144.01V116.211H166.861V101.275H126.872V163.881H167.664V148.945H144.01Z" stroke="#0F80AA" stroke-width="2" mask="url(#path-1-outside-1_902_921)"/>
<path d="M199.653 165.491C214.203 165.491 224.646 158.336 224.646 144.652C224.646 130.432 212.686 127.301 203.402 124.976C197.6 123.455 192.87 122.293 192.87 118.715C192.87 115.764 195.815 114.422 198.85 114.422C202.421 114.422 205.366 116.3 205.366 120.325H222.683C222.683 107.535 214.024 99.8438 199.029 99.8438C184.301 99.8438 175.285 106.909 175.285 119.252C175.285 133.472 186.8 136.245 195.815 138.481C201.796 139.912 206.705 141.075 206.705 145.01C206.705 148.409 203.224 150.376 199.653 150.376C195.726 150.376 192.245 148.14 192.245 143.668H174.482C174.482 157.352 184.39 165.491 199.653 165.491Z" stroke="#0F80AA" stroke-width="2" mask="url(#path-1-outside-1_902_921)"/>
<path d="M279.295 101.275H228.059V116.837H245.019V163.881H262.335V116.837H279.295V101.275Z" stroke="#0F80AA" stroke-width="2" mask="url(#path-1-outside-1_902_921)"/>
<path d="M342.699 101.275H323.687L312.262 123.903L300.836 101.275H281.734L303.425 139.375V163.881H320.92V139.465L342.699 101.275Z" stroke="#0F80AA" stroke-width="2" mask="url(#path-1-outside-1_902_921)"/>
<path d="M366.909 148.14V101.275H349.414V163.881H389.135V148.14H366.909Z" stroke="#0F80AA" stroke-width="2" mask="url(#path-1-outside-1_902_921)"/>
<path d="M413.971 148.945V139.554H434.501V125.423H413.971V116.211H436.822V101.275H396.833V163.881H437.626V148.945H413.971Z" stroke="#0F80AA" stroke-width="2" mask="url(#path-1-outside-1_902_921)"/>
<path d="M141.23 200.029V222.657H122.485V200.029H105.08V262.636H122.485V238.666H141.23V262.636H158.547V200.029H141.23Z" stroke="#0F80AA" stroke-width="2" mask="url(#path-1-outside-1_902_921)"/>
<path d="M187.768 247.7V238.309H208.298V224.177H187.768V214.965H210.619V200.029H170.63V262.636H211.423V247.7H187.768Z" stroke="#0F80AA" stroke-width="2" mask="url(#path-1-outside-1_902_921)"/>
<path d="M262.693 262.636H281.705L256.623 200.029H239.752L215.206 262.636H233.683L237.164 252.529H259.301L262.693 262.636ZM255.105 239.024H241.359L248.143 219.616L255.105 239.024Z" stroke="#0F80AA" stroke-width="2" mask="url(#path-1-outside-1_902_921)"/>
<path d="M305.193 246.895V200.029H287.698V262.636H327.419V246.895H305.193Z" stroke="#0F80AA" stroke-width="2" mask="url(#path-1-outside-1_902_921)"/>
<path d="M374.222 200.029H322.986V215.591H339.946V262.636H357.262V215.591H374.222V200.029Z" stroke="#0F80AA" stroke-width="2" mask="url(#path-1-outside-1_902_921)"/>
<path d="M418.078 200.029V222.657H399.333V200.029H381.927V262.636H399.333V238.666H418.078V262.636H435.395V200.029H418.078Z" stroke="#0F80AA" stroke-width="2" mask="url(#path-1-outside-1_902_921)"/>
<path d="M45.1904 363C59.7399 363 70.1834 355.845 70.1834 342.161C70.1834 327.94 58.2225 324.81 48.9393 322.485C43.1374 320.964 38.4066 319.801 38.4066 316.224C38.4066 313.272 41.3522 311.931 44.387 311.931C47.9575 311.931 50.9031 313.809 50.9031 317.834H68.2197C68.2197 305.044 59.5614 297.353 44.5656 297.353C29.8375 297.353 20.8222 304.418 20.8222 316.761C20.8222 330.981 32.3368 333.754 41.3522 335.99C47.3326 337.421 52.242 338.583 52.242 342.519C52.242 345.917 48.7608 347.885 45.1904 347.885C41.2629 347.885 37.7817 345.649 37.7817 341.177H20.0188C20.0188 354.861 29.9268 363 45.1904 363Z" stroke="#0F80AA" stroke-width="2" mask="url(#path-1-outside-1_902_921)"/>
<path d="M105.79 363C121.768 363 133.104 352.625 133.104 337.242V298.784H115.52V336.884C115.52 343.055 111.592 346.991 105.79 346.991C100.077 346.991 96.1499 343.055 96.1499 336.884V298.784H78.5656V337.242C78.5656 352.625 89.9017 363 105.79 363Z" stroke="#0F80AA" stroke-width="2" mask="url(#path-1-outside-1_902_921)"/>
<path d="M171.167 298.784H144.567V361.39H161.794V344.129H171.167C184.467 344.129 194.374 334.559 194.374 321.411C194.374 308.353 184.467 298.784 171.167 298.784ZM169.114 329.103H161.794V313.899H169.114C173.666 313.899 176.612 317.029 176.612 321.501C176.612 325.973 173.666 329.103 169.114 329.103Z" stroke="#0F80AA" stroke-width="2" mask="url(#path-1-outside-1_902_921)"/>
<path d="M228.698 298.784H202.098V361.39H219.326V344.129H228.698C241.998 344.129 251.906 334.559 251.906 321.411C251.906 308.353 241.998 298.784 228.698 298.784ZM226.645 329.103H219.326V313.899H226.645C231.197 313.899 234.143 317.029 234.143 321.501C234.143 325.973 231.197 329.103 226.645 329.103Z" stroke="#0F80AA" stroke-width="2" mask="url(#path-1-outside-1_902_921)"/>
<path d="M290.782 363C310.865 363 325.147 349.316 325.147 330.176C325.147 310.947 310.865 297.263 290.782 297.263C270.698 297.263 256.416 311.037 256.416 330.176C256.416 349.227 270.698 363 290.782 363ZM290.782 346.991C281.32 346.991 274.268 339.836 274.268 330.176C274.268 320.428 281.32 313.272 290.782 313.272C300.333 313.272 307.206 320.338 307.206 330.176C307.206 339.925 300.333 346.991 290.782 346.991Z" stroke="#0F80AA" stroke-width="2" mask="url(#path-1-outside-1_902_921)"/>
<path d="M367.549 361.39H386.74L374.333 338.673C380.492 335.006 384.241 328.656 384.241 320.964C384.241 307.906 374.422 298.784 361.033 298.784H333.898V361.39H351.125V342.25H357.373L367.549 361.39ZM351.125 314.167H358.98C363.8 314.167 366.567 317.029 366.567 320.964C366.567 324.81 363.8 327.761 358.98 327.761H351.125V314.167Z" stroke="#0F80AA" stroke-width="2" mask="url(#path-1-outside-1_902_921)"/>
<path d="M439.773 298.784H388.537V314.346H405.497V361.39H422.813V314.346H439.773V298.784Z" stroke="#0F80AA" stroke-width="2" mask="url(#path-1-outside-1_902_921)"/>
</g>
</svg>
