<svg width="54" height="54" viewBox="0 0 54 54" fill="none" xmlns="http://www.w3.org/2000/svg">
<path d="M54 0H0V54H54V0Z" fill="black"/>
<path d="M20.88 19.944C20.88 19.512 20.736 19.152 20.412 18.936C20.088 18.684 19.548 18.468 18.756 18.216C17.964 17.964 17.316 17.712 16.848 17.388C15.948 16.812 15.48 16.056 15.48 15.156C15.48 14.364 15.804 13.68 16.452 13.176C17.1 12.636 17.964 12.384 19.008 12.384C19.692 12.384 20.34 12.528 20.88 12.78C21.42 13.032 21.852 13.392 22.176 13.86C22.5 14.328 22.644 14.868 22.644 15.444H20.88C20.88 14.904 20.7 14.508 20.376 14.22C20.052 13.932 19.584 13.788 18.972 13.788C18.396 13.788 17.964 13.896 17.64 14.148C17.316 14.4 17.172 14.724 17.172 15.156C17.172 15.516 17.352 15.84 17.676 16.056C18 16.308 18.576 16.524 19.368 16.776C20.16 16.992 20.772 17.28 21.24 17.568C21.708 17.856 22.068 18.216 22.284 18.576C22.5 18.972 22.608 19.404 22.608 19.908C22.608 20.736 22.284 21.42 21.636 21.888C20.988 22.392 20.124 22.644 19.044 22.644C18.324 22.644 17.64 22.5 17.064 22.248C16.452 21.996 15.984 21.6 15.66 21.132C15.336 20.664 15.156 20.124 15.156 19.476H16.884C16.884 20.052 17.064 20.484 17.46 20.808C17.82 21.132 18.36 21.276 19.08 21.276C19.692 21.276 20.124 21.168 20.448 20.916C20.736 20.664 20.88 20.34 20.88 19.944Z" fill="white"/>
<path d="M18.9001 36.36L21.2041 31.608H23.1121L19.7641 37.944V41.616H18.0001V37.944L14.6521 31.608H16.5961L18.9001 36.36Z" fill="white"/>
<path d="M39.3482 41.652H37.6202L33.1562 34.524V41.616H31.4282V31.608H33.1562L37.6202 38.736V31.608H39.3482V41.652Z" fill="white"/>
<path d="M34.2721 18.1799L33.1201 19.3679V22.4999H31.3921V12.4919H33.1201V17.1719L34.0921 15.9839L37.0081 12.4919H39.0961L35.4241 16.9199L39.3481 22.4999H37.2961L34.2721 18.1799Z" fill="white"/>
</svg>
