<svg width="205" height="52" viewBox="0 0 205 52" fill="none" xmlns="http://www.w3.org/2000/svg">
<g clip-path="url(#clip0_3_1064)">
<path d="M0 43.8743L5.21547 37.3609C9.77103 41.5312 15.0717 44.1538 21.5857 44.1538C27.7378 44.1538 30.9309 41.0798 30.9309 37.4899C30.9309 33.3196 27.3759 31.9438 19.4143 30.0306C9.1324 27.623 1.95846 24.6135 1.95846 15.1765C1.95846 6.42745 9.34527 0 19.8401 0C27.7378 0 33.6771 2.70856 38.6584 7.02935L33.7409 13.7578C29.3982 9.95287 24.3956 7.82472 19.4782 7.82472C14.4756 7.82472 11.0696 10.8987 11.0696 14.4026C11.0696 18.487 14.7523 19.9487 22.6501 21.7974C32.9958 24.1406 39.9569 27.494 39.9569 36.6515C39.9569 45.637 33.1449 52 21.2664 52C12.7513 52 5.5135 49.055 0 43.8743Z" fill="black"/>
<path d="M53.2402 0.945862H62.2875V25.5163L84.086 0.945862H95.1556L75.2517 23.1087L96.6032 51.1832H85.4484L69.0144 29.5362L62.2875 36.845V51.1832H53.2402V0.945862Z" fill="black"/>
<path d="M124.362 32.3307L104.65 0.945862H115.294L128.982 23.6891L142.883 0.945862H153.164L133.537 32.3092V51.1832H124.341V32.3307H124.362Z" fill="black"/>
<path d="M160.679 0.945862H169.726L196.017 36.2646V0.945862H205V51.1832H196.017L169.726 15.8644V51.1832H160.679V0.945862Z" fill="black"/>
</g>
<defs>
<clipPath id="clip0_3_1064">
<rect width="205" height="52" fill="white"/>
</clipPath>
</defs>
</svg>
