<svg width="296" height="144" viewBox="0 0 296 144" fill="none" xmlns="http://www.w3.org/2000/svg">
<path d="M1.4 56H0.4V57H1.4V56ZM1.4 1.04V0.0399971H0.4V1.04H1.4ZM11.4 46.96H10.4V47.96H11.4V46.96ZM11.4 10.08V9.08H10.4V10.08H11.4ZM1.4 57H20.76V55H1.4V57ZM20.76 57C39.3599 57 52.72 45.2184 52.72 28.48H50.72C50.72 43.9016 38.4801 55 20.76 55V57ZM52.72 28.48C52.72 20.1585 49.4009 13.0246 43.7134 7.98176C38.0343 2.9463 30.047 0.0399971 20.76 0.0399971V2.04C29.633 2.04 37.1257 4.8137 42.3866 9.47824C47.6391 14.1354 50.72 20.7215 50.72 28.48H52.72ZM20.76 0.0399971H1.4V2.04H20.76V0.0399971ZM0.4 1.04V56H2.4V1.04H0.4ZM12.4 46.96V10.08H10.4V46.96H12.4ZM11.4 11.08H21.8V9.08H11.4V11.08ZM21.8 11.08C27.3802 11.08 32.0665 12.9055 35.3485 15.9618C38.6255 19.0134 40.56 23.3438 40.56 28.48H42.56C42.56 22.8162 40.4145 17.9466 36.7115 14.4982C33.0135 11.0545 27.8198 9.08 21.8 9.08V11.08ZM40.56 28.48C40.56 33.6168 38.625 37.9682 35.3463 41.0403C32.0632 44.1163 27.3774 45.96 21.8 45.96V47.96C27.8227 47.96 33.0168 45.9637 36.7137 42.4997C40.415 39.0318 42.56 34.1432 42.56 28.48H40.56ZM21.8 45.96H11.4V47.96H21.8V45.96ZM90.8194 27.6L90.4434 26.6734L88.0928 27.6272L90.4619 28.5339L90.8194 27.6ZM70.4194 27.6L70.7602 28.5401L73.1572 27.6712L70.8086 26.6789L70.4194 27.6ZM80.5794 24L80.5268 24.9986L80.5785 25.0013L80.6302 24.9987L80.5794 24ZM80.5794 32L80.6262 31.0011L80.579 30.9989L80.5318 31.0011L80.5794 32ZM80.5794 57.96C86.6468 57.96 92.2193 56.4862 96.3063 53.6738C100.42 50.8431 103.019 46.6523 103.019 41.36H101.019C101.019 45.9077 98.819 49.5169 95.1725 52.0262C91.4995 54.5538 86.352 55.96 80.5794 55.96V57.96ZM103.019 41.36C103.019 34.3071 97.871 29.228 91.1768 26.6661L90.4619 28.5339C96.7278 30.932 101.019 35.4529 101.019 41.36H103.019ZM91.1954 28.5266C96.9293 26.1998 101.579 21.8385 101.579 14.88H99.5794C99.5794 20.7215 95.7495 24.5202 90.4434 26.6734L91.1954 28.5266ZM101.579 14.88C101.579 9.85751 99.0304 5.87131 95.1385 3.17772C91.2679 0.498912 86.058 -0.920005 80.5794 -0.920005V1.08C85.7407 1.08 90.5308 2.42108 94.0003 4.82227C97.4484 7.20868 99.5794 10.6225 99.5794 14.88H101.579ZM80.5794 -0.920005C75.2618 -0.920005 70.0743 0.458336 66.1854 3.1142C62.2739 5.7855 59.6594 9.77199 59.6594 14.88H61.6594C61.6594 10.548 63.8449 7.1345 67.3133 4.7658C70.8044 2.38166 75.5769 1.08 80.5794 1.08V-0.920005ZM59.6594 14.88C59.6594 21.6744 64.1443 26.0341 70.0302 28.5211L70.8086 26.6789C65.3345 24.3659 61.6594 20.5656 61.6594 14.88H59.6594ZM70.0786 26.6599C63.4465 29.064 58.2194 34.1482 58.2194 41.36H60.2194C60.2194 35.2918 64.5922 30.776 70.7602 28.5401L70.0786 26.6599ZM58.2194 41.36C58.2194 46.6076 60.7744 50.7981 64.8581 53.6407C68.9159 56.4654 74.4703 57.96 80.5794 57.96V55.96C74.7685 55.96 69.6428 54.5346 66.0007 51.9993C62.3843 49.4819 60.2194 45.8724 60.2194 41.36H58.2194ZM80.6319 23.0014C78.507 22.8895 76.1686 22.1959 74.3899 20.9919C72.6225 19.7955 71.4994 18.1704 71.4994 16.16H69.4994C69.4994 19.0296 71.1362 21.2045 73.2688 22.6481C75.3902 24.0841 78.0918 24.8705 80.5268 24.9986L80.6319 23.0014ZM71.4994 16.16C71.4994 12.6343 75.0936 9.56 80.5794 9.56V7.56C74.5452 7.56 69.4994 11.0457 69.4994 16.16H71.4994ZM80.5794 9.56C86.0765 9.56 89.7394 12.6428 89.7394 16.16H91.7394C91.7394 11.0372 86.6023 7.56 80.5794 7.56V9.56ZM89.7394 16.16C89.7394 18.1322 88.6343 19.7577 86.8659 20.9639C85.088 22.1765 82.7313 22.8893 80.5286 23.0013L80.6302 24.9987C83.1474 24.8707 85.8707 24.0635 87.9928 22.6161C90.1244 21.1623 91.7394 18.9878 91.7394 16.16H89.7394ZM80.5794 47.4C77.4914 47.4 74.8627 46.6358 73.0371 45.3768C71.2305 44.1308 70.2194 42.4177 70.2194 40.4H68.2194C68.2194 43.1823 69.6483 45.4692 71.9016 47.0232C74.136 48.5642 77.1874 49.4 80.5794 49.4V47.4ZM70.2194 40.4C70.2194 38.303 71.505 36.5345 73.5526 35.2096C75.599 33.8854 78.2641 33.1114 80.6269 32.9989L80.5318 31.0011C77.8546 31.1286 74.8398 31.9946 72.4661 33.5304C70.0937 35.0655 68.2194 37.377 68.2194 40.4H70.2194ZM80.5326 32.9989C82.9366 33.1116 85.6002 33.8862 87.6344 35.2084C89.668 36.5303 90.9394 38.298 90.9394 40.4H92.9394C92.9394 37.382 91.0908 35.0697 88.7244 33.5316C86.3585 31.9938 83.3422 31.1284 80.6262 31.0011L80.5326 32.9989ZM90.9394 40.4C90.9394 42.4117 89.9141 44.1261 88.0935 45.3755C86.2557 46.6368 83.6253 47.4 80.5794 47.4V49.4C83.9335 49.4 86.9831 48.5632 89.2252 47.0245C91.4847 45.4739 92.9394 43.1883 92.9394 40.4H90.9394ZM42.04 98.16V99.16H43.04V98.16H42.04ZM42.04 89.04H43.04V88.04H42.04V89.04ZM0.68 89.04V88.04H-0.32V89.04H0.68ZM0.68 144H-0.32V145H0.68V144ZM10.68 144V145H11.68V144H10.68ZM10.68 121.2V120.2H9.68V121.2H10.68ZM39.08 121.2V122.2H40.08V121.2H39.08ZM39.08 112.08H40.08V111.08H39.08V112.08ZM10.68 112.08H9.68V113.08H10.68V112.08ZM10.68 98.16V97.16H9.68V98.16H10.68ZM43.04 98.16V89.04H41.04V98.16H43.04ZM42.04 88.04H0.68V90.04H42.04V88.04ZM-0.32 89.04V144H1.68V89.04H-0.32ZM0.68 145H10.68V143H0.68V145ZM11.68 144V121.2H9.68V144H11.68ZM10.68 122.2H39.08V120.2H10.68V122.2ZM40.08 121.2V112.08H38.08V121.2H40.08ZM39.08 111.08H10.68V113.08H39.08V111.08ZM11.68 112.08V98.16H9.68V112.08H11.68ZM10.68 99.16H42.04V97.16H10.68V99.16ZM92.5981 144L91.6759 144.387L91.9331 145H92.5981V144ZM103.638 144V145H105.14L104.561 143.615L103.638 144ZM80.6781 89.04L81.6008 88.6545L81.3441 88.04H80.6781V89.04ZM69.5581 89.04V88.04H68.8921L68.6354 88.6545L69.5581 89.04ZM46.5981 144L45.6754 143.615L45.0966 145H46.5981V144ZM57.7181 144V145H58.3831L58.6403 144.387L57.7181 144ZM61.8781 134.08V133.08H61.2131L60.9559 133.693L61.8781 134.08ZM88.4381 134.08L89.3603 133.693L89.1031 133.08H88.4381V134.08ZM65.4781 125.44L64.5557 125.054L63.9753 126.44H65.4781V125.44ZM75.1581 102.32L76.0805 101.934L75.1581 99.7307L74.2357 101.934L75.1581 102.32ZM84.8381 125.44V126.44H86.3409L85.7605 125.054L84.8381 125.44ZM92.5981 145H103.638V143H92.5981V145ZM104.561 143.615L81.6008 88.6545L79.7554 89.4255L102.715 144.385L104.561 143.615ZM80.6781 88.04H69.5581V90.04H80.6781V88.04ZM68.6354 88.6545L45.6754 143.615L47.5208 144.385L70.4808 89.4255L68.6354 88.6545ZM46.5981 145H57.7181V143H46.5981V145ZM58.6403 144.387L62.8003 134.467L60.9559 133.693L56.7959 143.613L58.6403 144.387ZM61.8781 135.08H88.4381V133.08H61.8781V135.08ZM87.5159 134.467L91.6759 144.387L93.5203 143.613L89.3603 133.693L87.5159 134.467ZM66.4005 125.826L76.0805 102.706L74.2357 101.934L64.5557 125.054L66.4005 125.826ZM74.2357 102.706L83.9157 125.826L85.7605 125.054L76.0805 101.934L74.2357 102.706ZM84.8381 124.44H65.4781V126.44H84.8381V124.44ZM111.634 144H110.634V145H111.634V144ZM121.634 144V145H122.634V144H121.634ZM121.634 107.28L122.515 106.805L120.634 107.28H121.634ZM139.714 140.8L138.834 141.275L139.712 142.903L140.594 141.276L139.714 140.8ZM157.874 107.28H158.874L156.995 106.804L157.874 107.28ZM157.874 144H156.874V145H157.874V144ZM167.794 144V145H168.794V144H167.794ZM167.794 89.04H168.794V88.04H167.794V89.04ZM157.874 89.04V88.04H157.279L156.995 88.5636L157.874 89.04ZM139.714 122.56L138.834 123.035L139.712 124.663L140.594 123.036L139.714 122.56ZM121.634 89.04L122.515 88.5653L122.231 88.04H121.634V89.04ZM111.634 89.04V88.04H110.634V89.04H111.634ZM111.634 145H121.634V143H111.634V145ZM122.634 144V107.28H120.634V144H122.634ZM120.754 107.755L138.834 141.275L140.595 140.325L122.515 106.805L120.754 107.755ZM140.594 141.276L158.754 107.756L156.995 106.804L138.835 140.324L140.594 141.276ZM156.874 107.28V144H158.874V107.28H156.874ZM157.874 145H167.794V143H157.874V145ZM168.794 144V89.04H166.794V144H168.794ZM167.794 88.04H157.874V90.04H167.794V88.04ZM156.995 88.5636L138.835 122.084L140.594 123.036L158.754 89.5163L156.995 88.5636ZM140.595 122.085L122.515 88.5653L120.754 89.5147L138.834 123.035L140.595 122.085ZM121.634 88.04H111.634V90.04H121.634V88.04ZM110.634 89.04V144H112.634V89.04H110.634ZM180.137 144H179.137V145H180.137V144ZM190.057 144V145H191.057V144H190.057ZM190.057 89.04H191.057V88.04H190.057V89.04ZM180.137 89.04V88.04H179.137V89.04H180.137ZM180.137 145H190.057V143H180.137V145ZM191.057 144V89.04H189.057V144H191.057ZM190.057 88.04H180.137V90.04H190.057V88.04ZM179.137 89.04V144H181.137V89.04H179.137ZM210.979 134.88H209.979V135.88H210.979V134.88ZM210.979 89.04H211.979V88.04H210.979V89.04ZM201.059 89.04V88.04H200.059V89.04H201.059ZM201.059 144H200.059V145H201.059V144ZM239.219 144V145H240.219V144H239.219ZM239.219 134.88H240.219V133.88H239.219V134.88ZM211.979 134.88V89.04H209.979V134.88H211.979ZM210.979 88.04H201.059V90.04H210.979V88.04ZM200.059 89.04V144H202.059V89.04H200.059ZM201.059 145H239.219V143H201.059V145ZM240.219 144V134.88H238.219V144H240.219ZM239.219 133.88H210.979V135.88H239.219V133.88ZM264.041 144H263.041V145H264.041V144ZM274.201 144V145H275.201V144H274.201ZM274.201 123.36L273.355 122.826L273.201 123.071V123.36H274.201ZM295.881 89.04L296.726 89.5741L297.695 88.04H295.881V89.04ZM284.521 89.04V88.04H283.963L283.67 88.5147L284.521 89.04ZM269.161 113.92L268.306 114.439L269.154 115.834L270.012 114.445L269.161 113.92ZM254.041 89.04L254.895 88.5207L254.603 88.04H254.041V89.04ZM242.281 89.04V88.04H240.463L241.436 89.5755L242.281 89.04ZM264.041 123.36H265.041V123.07L264.885 122.825L264.041 123.36ZM264.041 145H274.201V143H264.041V145ZM275.201 144V123.36H273.201V144H275.201ZM275.046 123.894L296.726 89.5741L295.035 88.5059L273.355 122.826L275.046 123.894ZM295.881 88.04H284.521V90.04H295.881V88.04ZM283.67 88.5147L268.31 113.395L270.012 114.445L285.372 89.5653L283.67 88.5147ZM270.015 113.401L254.895 88.5207L253.186 89.5593L268.306 114.439L270.015 113.401ZM254.041 88.04H242.281V90.04H254.041V88.04ZM241.436 89.5755L263.196 123.895L264.885 122.825L243.125 88.5045L241.436 89.5755ZM263.041 123.36V144H265.041V123.36H263.041Z" fill="#83C5BE"/>
</svg>
