<svg width="267" height="178" viewBox="0 0 267 178" fill="none" xmlns="http://www.w3.org/2000/svg">
<path fill-rule="evenodd" clip-rule="evenodd" d="M51.632 14.992H14V29.696H48.08V42.64H14V70H0V2.048H51.632V14.992ZM13 69H1V3.048H50.632V13.992H13V30.696H47.08V41.64H13V69ZM128.814 35.976C128.814 55.0671 112.515 71.152 93.2537 71.152C73.8981 71.152 57.5977 55.0689 57.5977 35.976C57.5977 16.8795 73.9018 0.895996 93.2537 0.895996C112.511 0.895996 128.814 16.8813 128.814 35.976ZM71.7897 35.976C71.7897 48.1259 81.6437 58.208 93.2537 58.208C104.76 58.208 114.526 48.1344 114.526 35.976C114.526 23.9164 104.762 13.84 93.2537 13.84C81.6411 13.84 71.7897 23.9248 71.7897 35.976ZM199.114 2.51016L174.234 35.9769L199.455 70H182.757L165.882 47.2515L148.914 70H132.311L157.535 36.0711L132.314 2.048H149.108L165.983 24.7965L182.951 2.048H215.314L232.902 30.9895L250.77 2.048H266.774L239.943 44.5214V70H225.752V44.5223L199.114 2.51016ZM226.752 44.232V69H238.943V44.232L264.96 3.048H251.327L232.896 32.904L214.752 3.048H200.64L226.752 44.232ZM183.452 3.048H197.469L172.989 35.976L197.469 69H183.261L165.885 45.576L148.413 69H134.301L158.781 36.072L134.301 3.048H148.605L165.98 26.472L183.452 3.048ZM74.9757 120.992H37.3438V134.928H71.4237V147.872H37.3438V163.056H74.9757V176H23.3438V108.048H74.9757V120.992ZM73.9757 164.056V175H24.3438V109.048H73.9757V119.992H36.3438V135.928H70.4237V146.872H36.3438V164.056H73.9757ZM104.533 176V150.522L77.6027 108.048H94.0952L111.683 136.99L129.551 108.048H145.555L118.725 150.521V176H104.533ZM117.725 150.232L143.741 109.048H130.109L111.677 138.904L93.5327 109.048H79.4207L105.533 150.232V175H117.725V150.232ZM201.913 120.992H164.281V134.928H198.361V147.872H164.281V163.056H201.913V176H150.281V108.048H201.913V120.992ZM200.913 164.056V175H151.281V109.048H200.913V119.992H163.281V135.928H197.361V146.872H163.281V164.056H200.913ZM252.537 125.202C246.959 120.616 240.631 118.072 234.39 118.072C227.766 118.072 223.254 122.104 223.254 126.712C223.254 132.088 228.15 134.008 238.614 136.408C252.342 139.48 261.558 143.896 261.558 155.896C261.558 167.704 252.534 176.056 236.79 176.056C225.462 176.056 215.862 172.216 208.566 165.4L215.478 156.856C215.726 157.081 215.976 157.302 216.228 157.519C222.104 162.606 228.889 165.784 237.174 165.784C245.334 165.784 249.558 161.752 249.558 157.048C249.558 151.576 244.854 149.752 234.294 147.256C220.662 144.088 211.158 140.152 211.158 127.768C211.158 116.248 220.95 107.8 234.87 107.8C245.334 107.8 253.206 111.352 259.83 117.016L253.302 125.848C253.049 125.628 252.793 125.413 252.537 125.202ZM238.835 135.433C233.585 134.229 229.891 133.175 227.508 131.809C226.335 131.136 225.536 130.418 225.025 129.619C224.521 128.83 224.254 127.895 224.254 126.712C224.254 122.843 228.111 119.072 234.39 119.072C240.63 119.072 247.03 121.735 252.647 126.604L253.464 127.312L261.188 116.861L260.48 116.256C253.694 110.453 245.596 106.8 234.87 106.8C220.559 106.8 210.158 115.548 210.158 127.768C210.158 134.28 212.687 138.663 217.031 141.78C221.289 144.836 227.25 146.646 234.065 148.229C239.37 149.483 243.037 150.536 245.383 151.9C246.535 152.57 247.312 153.285 247.808 154.087C248.299 154.88 248.558 155.83 248.558 157.048C248.558 159.076 247.657 160.972 245.817 162.387C243.961 163.814 241.098 164.784 237.174 164.784C228.836 164.784 222.057 161.46 216.149 156.114L215.365 155.405L207.203 165.495L207.884 166.131C215.375 173.129 225.223 177.056 236.79 177.056C244.832 177.056 251.274 174.923 255.723 171.168C260.189 167.401 262.558 162.073 262.558 155.896C262.558 149.581 260.106 145.179 255.831 142.001C251.631 138.88 245.717 136.973 238.835 135.433ZM127.814 35.976C127.814 54.504 111.974 70.152 93.2537 70.152C74.4378 70.152 58.5977 54.504 58.5977 35.976C58.5977 17.448 74.4378 1.896 93.2537 1.896C111.974 1.896 127.814 17.448 127.814 35.976ZM70.7897 35.976C70.7897 48.648 81.0618 59.208 93.2537 59.208C105.35 59.208 115.526 48.648 115.526 35.976C115.526 23.4 105.35 12.84 93.2537 12.84C81.0618 12.84 70.7897 23.4 70.7897 35.976Z" fill="#DC7F9B"/>
</svg>
