<svg width="180" height="180" viewBox="0 0 180 180" fill="none" xmlns="http://www.w3.org/2000/svg">
<path d="M1.5 178.5V1.5H178.5V178.5H1.5Z" stroke="white" stroke-width="3"/>
<path d="M69.6 66.48C69.6 65.04 69.12 63.84 68.04 63.12C66.96 62.28 65.16 61.56 62.52 60.72C59.88 59.88 57.72 59.04 56.16 57.96C53.16 56.04 51.6 53.52 51.6 50.52C51.6 47.88 52.68 45.6 54.84 43.92C57 42.12 59.88 41.28 63.36 41.28C65.64 41.28 67.8 41.76 69.6 42.6C71.4 43.44 72.84 44.64 73.92 46.2C75 47.76 75.48 49.56 75.48 51.48H69.6C69.6 49.68 69 48.36 67.92 47.4C66.84 46.44 65.28 45.96 63.24 45.96C61.32 45.96 59.88 46.32 58.8 47.16C57.72 48 57.24 49.08 57.24 50.52C57.24 51.72 57.84 52.8 58.92 53.52C60 54.36 61.92 55.08 64.56 55.92C67.2 56.64 69.24 57.6 70.8 58.56C72.36 59.52 73.56 60.72 74.28 61.92C75 63.24 75.36 64.68 75.36 66.36C75.36 69.12 74.28 71.4 72.12 72.96C69.96 74.64 67.08 75.48 63.48 75.48C61.08 75.48 58.8 75 56.88 74.16C54.84 73.32 53.28 72 52.2 70.44C51.12 68.88 50.52 67.08 50.52 64.92H56.28C56.28 66.84 56.88 68.28 58.2 69.36C59.4 70.44 61.2 70.92 63.6 70.92C65.64 70.92 67.08 70.56 68.16 69.72C69.12 68.88 69.6 67.8 69.6 66.48Z" fill="white"/>
<path d="M63.0001 121.2L70.6801 105.36H77.0401L65.8801 126.48V138.72H60.0001V126.48L48.8401 105.36H55.3201L63.0001 121.2Z" fill="white"/>
<path d="M131.16 138.84H125.4L110.52 115.08V138.72H104.76V105.36H110.52L125.4 129.12V105.36H131.16V138.84Z" fill="white"/>
<path d="M114.24 60.5999L110.4 64.5599V74.9999H104.64V41.6399H110.4V57.2399L113.64 53.2799L123.36 41.6399H130.32L118.08 56.3999L131.16 74.9999H124.32L114.24 60.5999Z" fill="white"/>
</svg>
