<svg width="84" height="84" viewBox="0 0 84 84" fill="none" xmlns="http://www.w3.org/2000/svg">
<path d="M84 0H0V84H84V0Z" fill="black"/>
<path d="M32.4799 31.024C32.4799 30.352 32.2559 29.792 31.7519 29.456C31.2479 29.064 30.4079 28.728 29.1759 28.336C27.9439 27.944 26.9359 27.552 26.2079 27.048C24.8079 26.152 24.0799 24.976 24.0799 23.576C24.0799 22.344 24.5839 21.28 25.5919 20.496C26.5999 19.656 27.9439 19.264 29.5679 19.264C30.6319 19.264 31.6399 19.488 32.4799 19.88C33.3199 20.272 33.9919 20.832 34.4959 21.56C34.9999 22.288 35.2239 23.128 35.2239 24.024H32.4799C32.4799 23.184 32.1999 22.568 31.6959 22.12C31.1919 21.672 30.4639 21.448 29.5119 21.448C28.6159 21.448 27.9439 21.616 27.4399 22.008C26.9359 22.4 26.7119 22.904 26.7119 23.576C26.7119 24.136 26.9919 24.64 27.4959 24.976C27.9999 25.368 28.8959 25.704 30.1279 26.096C31.3599 26.432 32.3119 26.88 33.0399 27.328C33.7679 27.776 34.3279 28.336 34.6639 28.896C34.9999 29.512 35.1679 30.184 35.1679 30.968C35.1679 32.256 34.6639 33.32 33.6559 34.048C32.6479 34.832 31.3039 35.224 29.6239 35.224C28.5039 35.224 27.4399 35 26.5439 34.608C25.5919 34.216 24.8639 33.6 24.3599 32.872C23.8559 32.144 23.5759 31.304 23.5759 30.296H26.2639C26.2639 31.192 26.5439 31.864 27.1599 32.368C27.7199 32.872 28.5599 33.096 29.6799 33.096C30.6319 33.096 31.3039 32.928 31.8079 32.536C32.2559 32.144 32.4799 31.64 32.4799 31.024Z" fill="white"/>
<path d="M29.4 56.56L32.984 49.168H35.952L30.744 59.024V64.736H28V59.024L22.792 49.168H25.816L29.4 56.56Z" fill="white"/>
<path d="M61.2079 64.792H58.5199L51.5759 53.704V64.736H48.8879V49.168H51.5759L58.5199 60.256V49.168H61.2079V64.792Z" fill="white"/>
<path d="M53.312 28.28L51.52 30.128V35H48.832V19.432H51.52V26.712L53.032 24.864L57.568 19.432H60.816L55.104 26.32L61.208 35H58.016L53.312 28.28Z" fill="white"/>
</svg>
