<svg width="54" height="14" viewBox="0 0 54 14" fill="none" xmlns="http://www.w3.org/2000/svg">
<path d="M7.8357 10.3035C7.8357 10.0227 7.79211 9.77317 7.70495 9.55481C7.62401 9.33645 7.47769 9.13681 7.266 8.95588C7.05431 8.77496 6.75545 8.60027 6.36942 8.43182C5.98962 8.25713 5.50398 8.07932 4.91249 7.8984C4.26496 7.69875 3.66724 7.47727 3.11934 7.23396C2.57765 6.9844 2.10446 6.69742 1.69976 6.37299C1.29505 6.04234 0.98063 5.66488 0.756486 5.24064C0.532342 4.81016 0.42027 4.31417 0.42027 3.75267C0.42027 3.19742 0.535455 2.69207 0.765825 2.23663C1.00242 1.78119 1.33552 1.38815 1.76513 1.05749C2.20097 0.720588 2.71463 0.461676 3.30612 0.280749C3.89761 0.0935829 4.55137 0 5.26738 0C6.27603 0 7.14459 0.187166 7.87305 0.561497C8.60775 0.935829 9.17122 1.43806 9.56347 2.06818C9.96195 2.69831 10.1612 3.39394 10.1612 4.15508H7.8357C7.8357 3.70588 7.73919 3.30971 7.54618 2.96658C7.35939 2.6172 7.07299 2.34269 6.68696 2.14305C6.30716 1.9434 5.82463 1.84358 5.23936 1.84358C4.68523 1.84358 4.22449 1.92781 3.85714 2.09626C3.4898 2.26471 3.21584 2.49242 3.03528 2.77941C2.85472 3.0664 2.76444 3.39082 2.76444 3.75267C2.76444 4.00847 2.82359 4.24242 2.94189 4.45455C3.06019 4.66043 3.24075 4.85383 3.48357 5.03476C3.72639 5.20945 4.03148 5.37478 4.39882 5.53075C4.76617 5.68672 5.19889 5.83645 5.69699 5.97995C6.45036 6.20455 7.10723 6.4541 7.66759 6.72861C8.22795 6.99688 8.69491 7.30258 9.06849 7.64572C9.44206 7.98886 9.72224 8.37879 9.90903 8.81551C10.0958 9.24599 10.1892 9.73574 10.1892 10.2848C10.1892 10.8587 10.074 11.3766 9.84365 11.8382C9.61328 12.2937 9.28329 12.6836 8.85368 13.008C8.4303 13.3262 7.91975 13.5726 7.32203 13.7473C6.73054 13.9158 6.07056 14 5.3421 14C4.68834 14 4.04393 13.9127 3.40885 13.738C2.78001 13.5633 2.20719 13.2981 1.69042 12.9425C1.17364 12.5807 0.762712 12.1315 0.457627 11.5949C0.152542 11.0521 0 10.4189 0 9.69519H2.34417C2.34417 10.1381 2.41889 10.5156 2.56832 10.8275C2.72397 11.1395 2.93878 11.3953 3.21273 11.5949C3.48668 11.7883 3.80422 11.9318 4.16534 12.0254C4.53269 12.119 4.92494 12.1658 5.3421 12.1658C5.89 12.1658 6.34763 12.0878 6.71498 11.9318C7.08855 11.7758 7.36873 11.5575 7.55552 11.2767C7.7423 10.996 7.8357 10.6716 7.8357 10.3035Z" fill="white"/>
<path d="M16.9976 0.187166V13.8128H14.6534V0.187166H16.9976ZM25.1695 0.187166L19.6593 6.74733L16.5213 10.0789L16.1103 7.74866L18.3518 4.97861L22.3117 0.187166H25.1695ZM22.6479 13.8128L18.1743 7.35562L19.79 5.75535L25.431 13.8128H22.6479Z" fill="white"/>
<path d="M30.4275 0.187166L33.5842 6.69118L36.7409 0.187166H39.3373L34.761 8.79679V13.8128H32.3981V8.79679L27.8219 0.187166H30.4275Z" fill="white"/>
<path d="M54 0.187166V13.8128H51.6558L45.5572 4.05214V13.8128H43.2131V0.187166H45.5572L51.6745 9.96658V0.187166H54Z" fill="white"/>
</svg>
