<svg width="312" height="117" viewBox="0 0 312 117" fill="none" xmlns="http://www.w3.org/2000/svg">
<path fill-rule="evenodd" clip-rule="evenodd" d="M156.576 45.968V0H166.075L187.808 28.917V0H197.744V45.968H188.309L166.576 17.051V45.968H156.576ZM165.576 14.056L188.808 44.968H196.744V1H188.808V31.912L165.576 1H157.576V44.968H165.576V14.056ZM240.525 9.296H215.438V17.92H238.158V27.216H215.438V36.672H240.525V45.968H205.438V0H240.525V9.296ZM239.525 37.672V44.968H206.438V1H239.525V8.296H214.438V18.92H237.158V26.216H214.438V37.672H239.525ZM257.464 45.968L242.877 0H253.756L262.469 29.1596L272.129 0H282.279L291.877 29.1499L300.587 0H311.464L296.944 45.968H287.493L277.201 15.4491L266.848 45.968H257.464ZM277.203 12.328L288.211 44.968H296.211L310.099 1H301.331L291.923 32.488L281.555 1H272.852L262.419 32.488L253.012 1H244.243L258.195 44.968H266.132L277.203 12.328ZM0 115.968V70H20.136C29.9694 70 37.584 76.3448 37.584 85.592C37.584 94.8392 29.9694 101.184 20.136 101.184H10V115.968H0ZM9 114.968H1V71H20.136C29.544 71 36.584 77.016 36.584 85.592C36.584 94.168 29.544 100.184 20.136 100.184H9V114.968ZM10 79.36V91.824H19.24C21.8032 91.824 23.8739 91.1746 25.2787 90.0951C26.6579 89.0351 27.456 87.5194 27.456 85.592C27.456 83.6646 26.6579 82.1488 25.2787 81.0889C23.8739 80.0094 21.8032 79.36 19.24 79.36H10ZM75.682 115.968L72.354 108.032H52.436L49.108 115.968H38.0455L57.249 70H67.477L86.6805 115.968H75.682ZM51.771 107.032H73.019L76.347 114.968H85.179L66.811 71H57.915L39.547 114.968H48.443L51.771 107.032ZM54.651 100.12H70.139L62.395 81.624L54.651 100.12ZM56.1538 99.12H68.6362L62.395 84.2133L56.1538 99.12ZM130.439 108.527L129.739 109.259C125.338 113.86 119.194 116.736 112.44 116.736C99.3564 116.736 88.336 105.869 88.336 92.952C88.336 80.0315 99.3601 69.232 112.44 69.232C119.193 69.232 125.335 72.1075 129.734 76.6395L130.444 77.3716L123.239 84.0906L122.561 83.2988C120.048 80.3673 116.35 78.528 112.44 78.528C104.891 78.528 98.464 85.0928 98.464 92.952C98.464 100.878 104.894 107.44 112.44 107.44C116.41 107.44 120.05 105.604 122.632 102.66L123.312 101.886L130.439 108.527ZM128.309 109.276C128.55 109.045 128.785 108.809 129.016 108.568L123.384 103.32C123.174 103.56 122.956 103.793 122.733 104.019C120.033 106.748 116.4 108.44 112.44 108.44C104.312 108.44 97.464 101.4 97.464 92.952C97.464 84.568 104.312 77.528 112.44 77.528C116.323 77.528 119.989 79.2044 122.644 81.911C122.877 82.1489 123.103 82.3947 123.32 82.648L129.016 77.336C129.016 77.336 129.016 77.336 129.016 77.336C128.784 77.0966 128.546 76.8621 128.304 76.6326C124.143 72.6896 118.548 70.232 112.44 70.232C99.896 70.232 89.336 80.6 89.336 92.952C89.336 105.304 99.896 115.736 112.44 115.736C118.551 115.736 124.147 113.276 128.309 109.276ZM134.699 115.968V70H144.699V89.889L162.517 70H175.014L156.458 90.4454L176.052 115.952L195.249 70H205.477L224.681 115.968H213.682L210.354 108.032H190.436L187.108 115.968H163.686L149.578 97.5714L144.699 102.817V115.968H134.699ZM143.699 102.424L149.651 96.024L164.18 114.968H174.035L155.155 90.392L172.755 71H162.964L143.699 92.504V71H135.699V114.968H143.699V102.424ZM189.771 107.032H211.019L214.347 114.968H223.179L204.811 71H195.915L177.547 114.968H186.443L189.771 107.032ZM192.651 100.12H208.139L200.395 81.624L192.651 100.12ZM194.154 99.12H206.636L200.395 84.2133L194.154 99.12ZM247.225 98.304V89.776H267.978V108.969L267.7 109.259C263.271 113.889 256.154 116.736 249.505 116.736C236.363 116.736 225.273 105.874 225.273 92.952C225.273 80.0262 236.367 69.232 249.505 69.232C256.147 69.232 263.267 72.0101 267.7 76.6448L268.4 77.3766L261.202 84.0894L260.523 83.3C257.987 80.3503 253.543 78.528 249.505 78.528C241.885 78.528 235.401 85.1012 235.401 92.952C235.401 100.87 241.887 107.44 249.505 107.44C252.458 107.44 255.646 106.466 258.169 104.781V98.304H247.225ZM259.169 105.304C256.417 107.288 252.833 108.44 249.505 108.44C241.314 108.44 234.401 101.4 234.401 92.952C234.401 84.568 241.314 77.528 249.505 77.528C253.475 77.528 257.829 79.1738 260.637 81.9574C260.862 82.1804 261.077 82.4107 261.281 82.648L266.977 77.3364C266.977 77.3362 266.977 77.3355 266.977 77.3352C266.748 77.0956 266.511 76.8611 266.266 76.6318C262.011 72.6359 255.558 70.232 249.505 70.232C236.897 70.232 226.273 80.6 226.273 92.952C226.273 105.304 236.897 115.736 249.505 115.736C255.905 115.736 262.753 112.984 266.978 108.568V90.776H248.225V97.304H259.169V105.304ZM309.588 79.296H284.5V87.92H307.22V97.216H284.5V106.672H309.588V115.968H274.5V70H309.588V79.296ZM308.588 107.672V114.968H275.5V71H308.588V78.296H283.5V88.92H306.22V96.216H283.5V107.672H308.588ZM9 92.824H19.24C24.68 92.824 28.456 90.072 28.456 85.592C28.456 81.112 24.68 78.36 19.24 78.36H9V92.824Z" fill="#44AEA4"/>
</svg>
