<svg width="185" height="166" viewBox="0 0 185 166" fill="none" xmlns="http://www.w3.org/2000/svg">
<path fill-rule="evenodd" clip-rule="evenodd" d="M42.376 20.88C42.376 32.2511 32.6774 41.816 21.216 41.816C9.70039 41.816 0 32.2529 0 20.88C0 9.50352 9.70406 0 21.216 0C32.6738 0 42.376 9.5053 42.376 20.88ZM9.112 20.88C9.112 27.7499 14.686 33.432 21.216 33.432C27.6819 33.432 33.208 27.7584 33.208 20.88C33.208 14.0604 27.6845 8.384 21.216 8.384C14.6833 8.384 9.112 14.0688 9.112 20.88ZM82.8399 0.672001V23.736C82.8399 28.9865 81.0028 33.518 77.8035 36.7396C74.6037 39.9618 70.0987 41.816 64.8719 41.816C59.672 41.816 55.1679 39.9611 51.9622 36.7405C48.7566 33.52 46.9039 28.9888 46.9039 23.736V0.672001H55.9039V23.512C55.9039 29.4384 59.6904 33.488 64.8719 33.488C70.1131 33.488 73.8959 29.4345 73.8959 23.512V0.672001H82.8399ZM47.9039 23.736C47.9039 33.76 54.9599 40.816 64.8719 40.816C74.8399 40.816 81.8399 33.76 81.8399 23.736V1.672H74.8959V23.512C74.8959 29.896 70.7519 34.488 64.8719 34.488C59.0479 34.488 54.9039 29.896 54.9039 23.512V1.672H47.9039V23.736ZM123.302 41.144H112.901L103.829 28.208H97.9013V41.144H88.9013V0.672001H106.645C115.303 0.672001 122.037 6.26483 122.037 14.44C122.037 20.2918 118.526 24.8655 113.315 26.9775L123.302 41.144ZM111.741 26.48C112.075 26.3755 112.402 26.261 112.723 26.1369C117.724 24.1996 121.037 19.9133 121.037 14.44C121.037 6.936 114.877 1.672 106.645 1.672H89.9013V40.144H96.9013V27.208H104.349L113.421 40.144H121.373L111.741 26.48ZM105.861 9.112H97.9013V19.768H105.861C108.084 19.768 109.867 19.2046 111.069 18.2811C112.245 17.3771 112.925 16.0874 112.925 14.44C112.925 12.7926 112.245 11.5029 111.069 10.5989C109.867 9.67536 108.084 9.112 105.861 9.112ZM1.96 103.144V62.672H21.832C28.8899 62.672 34.2 67.0057 34.2 73.304C34.2 77.0271 32.5325 79.794 29.7564 81.7598C33.5191 84.0622 35.824 87.5334 35.824 91.672C35.824 98.5289 30.1236 103.144 22.56 103.144H1.96ZM28.8206 82.3679C28.4821 82.1747 28.1311 81.9907 27.768 81.816C28.1233 81.6238 28.4635 81.4219 28.7878 81.2099C31.5816 79.3844 33.2 76.8163 33.2 73.304C33.2 67.704 28.496 63.672 21.832 63.672H2.96V102.144H22.56C29.728 102.144 34.824 97.832 34.824 91.672C34.824 87.8167 32.6063 84.5276 28.8206 82.3679ZM10.904 70.72V78.408H20.152C23.2119 78.408 25.032 76.6621 25.032 74.592C25.032 72.4592 23.2037 70.72 20.152 70.72H10.904ZM10.904 86.12V95.096H21.16C24.5772 95.096 26.656 93.0991 26.656 90.608C26.656 88.117 24.5772 86.12 21.16 86.12H10.904ZM71.2908 71.056H49.3388V78.352H69.2188V86.736H49.3388V94.76H71.2908V103.144H40.3388V62.672H71.2908V71.056ZM70.2908 95.76V102.144H41.3388V63.672H70.2908V70.056H48.3388V79.352H68.2188V85.736H48.3388V95.76H70.2908ZM100.08 72.8331C96.9065 70.3235 93.3389 68.936 89.8191 68.936C85.9551 68.936 83.3231 71.288 83.3231 73.976C83.3231 77.112 86.1791 78.232 92.2831 79.632C100.291 81.424 105.667 84 105.667 91C105.667 97.888 100.403 102.76 91.2191 102.76C84.6111 102.76 79.0111 100.52 74.7551 96.544L78.7871 91.56C79.0358 91.785 79.2872 92.0042 79.5416 92.2172C82.8961 95.0262 86.7584 96.768 91.4431 96.768C96.2031 96.768 98.6671 94.416 98.6671 91.672C98.6671 88.48 95.9231 87.416 89.7631 85.96C81.8111 84.112 76.2671 81.816 76.2671 74.592C76.2671 67.872 81.9791 62.944 90.0991 62.944C96.2031 62.944 100.795 65.016 104.659 68.32L100.851 73.472C100.597 73.2516 100.34 73.0386 100.08 72.8331ZM89.5358 86.9338C85.5602 86.0099 82.008 84.9402 79.45 83.1044C76.8063 81.2072 75.2671 78.5237 75.2671 74.592C75.2671 67.1716 81.5875 61.944 90.0991 61.944C96.4652 61.944 101.283 64.1173 105.309 67.56L106.017 68.1653L101.013 74.9355L100.196 74.2277C96.9785 71.439 93.3389 69.936 89.8191 69.936C86.3 69.936 84.3231 72.027 84.3231 73.976C84.3231 74.599 84.4619 75.0636 84.7072 75.4472C84.9587 75.8405 85.3666 76.2177 86.0115 76.5875C87.3397 77.3492 89.4345 77.9527 92.5052 78.657C96.5264 79.557 100.05 80.684 102.575 82.5604C105.174 84.4928 106.667 87.1849 106.667 91C106.667 94.7167 105.237 97.9446 102.532 100.227C99.8425 102.497 95.9806 103.76 91.2191 103.76C84.3717 103.76 78.5237 101.433 74.0724 97.2747L73.3919 96.639L78.6743 90.1094L79.458 90.8185C82.8462 93.884 86.7047 95.768 91.4431 95.768C93.6672 95.768 95.2394 95.2182 96.2306 94.4562C97.2059 93.7064 97.6671 92.7204 97.6671 91.672C97.6671 91.0244 97.5303 90.5494 97.2917 90.1638C97.0484 89.7706 96.6537 89.3967 96.0222 89.0294C94.7163 88.2697 92.6395 87.6675 89.5358 86.9338ZM121.41 103.144V71.056H109.09V62.672H142.674V71.056H130.354V103.144H121.41ZM129.354 102.144H122.41V70.056H110.09V63.672H141.674V70.056H129.354V102.144ZM1.96 165.144V124.672H16.512C23.075 124.672 28.7403 126.726 32.7784 130.307C36.8249 133.895 39.184 138.971 39.184 144.88C39.184 156.794 29.6639 165.144 16.512 165.144H1.96ZM16.512 164.144C29.224 164.144 38.184 156.136 38.184 144.88C38.184 133.624 29.224 125.672 16.512 125.672H2.96V164.144H16.512ZM10.96 133V156.816H17.24C21.0774 156.816 24.2812 155.548 26.5173 153.453C28.749 151.362 30.072 148.397 30.072 144.88C30.072 141.364 28.7495 138.413 26.5195 136.337C24.2845 134.256 21.0802 133 17.24 133H10.96ZM75.0096 133.056H53.0576V140.352H72.9376V148.736H53.0576V156.76H75.0096V165.144H44.0576V124.672H75.0096V133.056ZM74.0096 157.76V164.144H45.0576V125.672H74.0096V132.056H52.0576V141.352H71.9376V147.736H52.0576V157.76H74.0096ZM109.337 165.144L106.425 158.2H89.1628L86.2508 165.144H76.3003L93.2078 124.672H102.324L119.231 165.144H109.337ZM88.4978 157.2H107.09L110.002 164.144H117.73L101.658 125.672H93.8738L77.8018 164.144H85.5858L88.4978 157.2ZM91.0178 151.152H104.57L97.7938 134.968L91.0178 151.152ZM92.5206 150.152H103.067L97.7938 137.557L92.5206 150.152ZM149.199 157.76V164.144H122.487V125.672H129.431V157.76H149.199ZM130.431 156.76H150.199V165.144H121.487V124.672H130.431V156.76ZM177.955 134.833C174.781 132.323 171.214 130.936 167.694 130.936C163.83 130.936 161.198 133.288 161.198 135.976C161.198 139.112 164.054 140.232 170.158 141.632C178.166 143.424 183.542 146 183.542 153C183.542 159.888 178.278 164.76 169.094 164.76C162.486 164.76 156.886 162.52 152.63 158.544C152.63 158.544 152.63 158.544 152.63 158.544L156.662 153.56C156.911 153.785 157.162 154.004 157.417 154.217C160.771 157.026 164.633 158.768 169.318 158.768C174.078 158.768 176.542 156.416 176.542 153.672C176.542 150.48 173.798 149.416 167.638 147.96C159.686 146.112 154.142 143.816 154.142 136.592C154.142 129.872 159.854 124.944 167.974 124.944C174.078 124.944 178.67 127.016 182.534 130.32L178.726 135.472C178.472 135.252 178.215 135.039 177.955 134.833ZM170.379 140.657C167.309 139.952 165.214 139.349 163.887 138.588C163.242 138.218 162.834 137.84 162.582 137.447C162.337 137.064 162.198 136.599 162.198 135.976C162.198 134.027 164.175 131.936 167.694 131.936C171.214 131.936 174.853 133.439 178.071 136.228L178.888 136.936L183.892 130.165L183.184 129.56C179.158 126.117 174.34 123.944 167.974 123.944C159.463 123.944 153.142 129.172 153.142 136.592C153.142 140.524 154.681 143.207 157.325 145.104C159.883 146.94 163.434 148.01 167.409 148.933C170.514 149.667 172.591 150.27 173.897 151.029C174.529 151.397 174.923 151.771 175.167 152.164C175.405 152.549 175.542 153.024 175.542 153.672C175.542 154.72 175.081 155.706 174.106 156.456C173.114 157.218 171.542 157.768 169.318 157.768C164.58 157.768 160.721 155.884 157.333 152.818L156.549 152.109L151.267 158.639L151.947 159.275C156.399 163.433 162.247 165.76 169.094 165.76C173.856 165.76 177.717 164.497 180.407 162.227C183.112 159.945 184.542 156.717 184.542 153C184.542 149.185 183.049 146.493 180.45 144.56C177.925 142.684 174.4 141.557 170.379 140.657ZM41.376 20.88C41.376 31.688 32.136 40.816 21.216 40.816C10.24 40.816 1 31.688 1 20.88C1 10.072 10.24 1 21.216 1C32.136 1 41.376 10.072 41.376 20.88ZM8.112 20.88C8.112 28.272 14.104 34.432 21.216 34.432C28.272 34.432 34.208 28.272 34.208 20.88C34.208 13.544 28.272 7.384 21.216 7.384C14.104 7.384 8.112 13.544 8.112 20.88ZM96.9013 8.112V20.768H105.861C110.621 20.768 113.925 18.36 113.925 14.44C113.925 10.52 110.621 8.112 105.861 8.112H96.9013ZM9.904 79.408H20.152C23.568 79.408 26.032 77.392 26.032 74.592C26.032 71.736 23.568 69.72 20.152 69.72H9.904V79.408ZM9.904 96.096H21.16C24.968 96.096 27.656 93.8 27.656 90.608C27.656 87.416 24.968 85.12 21.16 85.12H9.904V96.096ZM9.96 157.816H17.24C25.36 157.816 31.072 152.44 31.072 144.88C31.072 137.32 25.36 132 17.24 132H9.96V157.816Z" fill="#DC7F9B"/>
</svg>
