<svg width="184" height="166" viewBox="0 0 184 166" fill="none" xmlns="http://www.w3.org/2000/svg">
<path fill-rule="evenodd" clip-rule="evenodd" d="M102.979 20.88C102.979 32.2511 93.2799 41.816 81.8185 41.816C70.3029 41.816 60.6025 32.2529 60.6025 20.88C60.6025 9.50352 70.3065 0 81.8185 0C93.2763 0 102.979 9.5053 102.979 20.88ZM69.7145 20.88C69.7145 27.7499 75.2885 33.432 81.8185 33.432C88.2843 33.432 93.8105 27.7584 93.8105 20.88C93.8105 14.0604 88.287 8.384 81.8185 8.384C75.2858 8.384 69.7145 14.0688 69.7145 20.88ZM143.442 0.672001V23.736C143.442 28.9865 141.605 33.518 138.406 36.7396C135.206 39.9618 130.701 41.816 125.474 41.816C120.275 41.816 115.77 39.9611 112.565 36.7405C109.359 33.52 107.506 28.9888 107.506 23.736V0.672001H116.506V23.512C116.506 29.4384 120.293 33.488 125.474 33.488C130.716 33.488 134.498 29.4345 134.498 23.512V0.672001H143.442ZM108.506 23.736C108.506 33.76 115.562 40.816 125.474 40.816C135.442 40.816 142.442 33.76 142.442 23.736V1.672H135.498V23.512C135.498 29.896 131.354 34.488 125.474 34.488C119.65 34.488 115.506 29.896 115.506 23.512V1.672H108.506V23.736ZM183.904 41.144H173.504L164.432 28.208H158.504V41.144H149.504V0.672001H167.248C175.905 0.672001 182.64 6.26483 182.64 14.44C182.64 20.2918 179.129 24.8655 173.918 26.9775L183.904 41.144ZM172.344 26.48C172.678 26.3755 173.005 26.261 173.325 26.1369C178.326 24.1996 181.64 19.9133 181.64 14.44C181.64 6.936 175.48 1.672 167.248 1.672H150.504V40.144H157.504V27.208H164.952L174.024 40.144H181.976L172.344 26.48ZM166.464 9.112H158.504V19.768H166.464C168.687 19.768 170.47 19.2046 171.671 18.2811C172.848 17.3771 173.528 16.0874 173.528 14.44C173.528 12.7926 172.848 11.5029 171.671 10.5989C170.47 9.67536 168.687 9.112 166.464 9.112ZM42.2734 103.144V62.672H62.1454C69.2034 62.672 74.5134 67.0057 74.5134 73.304C74.5134 77.0271 72.8459 79.794 70.0698 81.7598C73.8325 84.0622 76.1374 87.5334 76.1374 91.672C76.1374 98.5289 70.4371 103.144 62.8734 103.144H42.2734ZM69.1341 82.3679C68.7956 82.1747 68.4445 81.9907 68.0814 81.816C68.4368 81.6238 68.7769 81.4219 69.1013 81.2099C71.895 79.3844 73.5134 76.8163 73.5134 73.304C73.5134 67.704 68.8094 63.672 62.1454 63.672H43.2734V102.144H62.8734C70.0414 102.144 75.1374 97.832 75.1374 91.672C75.1374 87.8167 72.9198 84.5276 69.1341 82.3679ZM51.2174 70.72V78.408H60.4654C63.5254 78.408 65.3454 76.6621 65.3454 74.592C65.3454 72.4592 63.5171 70.72 60.4654 70.72H51.2174ZM51.2174 86.12V95.096H61.4734C64.8906 95.096 66.9694 93.0991 66.9694 90.608C66.9694 88.117 64.8906 86.12 61.4734 86.12H51.2174ZM111.604 71.056H89.6523V78.352H109.532V86.736H89.6523V94.76H111.604V103.144H80.6523V62.672H111.604V71.056ZM110.604 95.76V102.144H81.6523V63.672H110.604V70.056H88.6523V79.352H108.532V85.736H88.6523V95.76H110.604ZM140.393 72.8331C137.22 70.3235 133.652 68.936 130.133 68.936C126.269 68.936 123.637 71.288 123.637 73.976C123.637 77.112 126.493 78.232 132.597 79.632C140.605 81.424 145.98 84 145.98 91C145.98 97.888 140.717 102.76 131.533 102.76C124.924 102.76 119.325 100.52 115.069 96.544L119.101 91.56C119.349 91.785 119.601 92.0042 119.855 92.2172C123.21 95.0262 127.072 96.768 131.757 96.768C136.517 96.768 138.98 94.416 138.98 91.672C138.98 88.48 136.237 87.416 130.077 85.96C122.125 84.112 116.581 81.816 116.581 74.592C116.581 67.872 122.293 62.944 130.413 62.944C136.517 62.944 141.109 65.016 144.973 68.32L141.165 73.472C140.91 73.2516 140.653 73.0386 140.393 72.8331ZM129.849 86.9338C125.874 86.0099 122.321 84.9401 119.763 83.1044C117.12 81.2072 115.581 78.5237 115.581 74.592C115.581 67.1716 121.901 61.944 130.413 61.944C136.779 61.944 141.596 64.1173 145.622 67.56L146.33 68.1653L141.326 74.9355L140.51 74.2277C137.292 71.439 133.652 69.936 130.133 69.936C126.613 69.936 124.637 72.027 124.637 73.976C124.637 74.599 124.775 75.0636 125.021 75.4472C125.272 75.8405 125.68 76.2177 126.325 76.5875C127.653 77.3491 129.748 77.9526 132.818 78.6569C136.84 79.557 140.363 80.6839 142.888 82.5604C145.488 84.4928 146.98 87.1849 146.98 91C146.98 94.7167 145.551 97.9446 142.845 100.227C140.156 102.497 136.294 103.76 131.533 103.76C124.685 103.76 118.837 101.433 114.386 97.2747L113.705 96.639L118.988 90.1094L119.771 90.8185C123.16 93.884 127.018 95.768 131.757 95.768C133.981 95.768 135.553 95.2182 136.544 94.4562C137.519 93.7064 137.98 92.7204 137.98 91.672C137.98 91.0244 137.844 90.5494 137.605 90.1638C137.362 89.7706 136.967 89.3967 136.336 89.0294C135.03 88.2697 132.953 87.6675 129.849 86.9338ZM161.723 103.144V71.056H149.403V62.672H182.987V71.056H170.667V103.144H161.723ZM169.667 102.144H162.723V70.056H150.403V63.672H181.987V70.056H169.667V102.144ZM0 165.144V124.672H14.552C21.115 124.672 26.7803 126.726 30.8184 130.307C34.8649 133.895 37.224 138.971 37.224 144.88C37.224 156.794 27.7039 165.144 14.552 165.144H0ZM14.552 164.144C27.264 164.144 36.224 156.136 36.224 144.88C36.224 133.624 27.264 125.672 14.552 125.672H1V164.144H14.552ZM9 133V156.816H15.28C19.1174 156.816 22.3212 155.548 24.5573 153.453C26.789 151.362 28.112 148.397 28.112 144.88C28.112 141.364 26.7895 138.413 24.5595 136.337C22.3245 134.256 19.1202 133 15.28 133H9ZM73.0496 133.056H51.0976V140.352H70.9776V148.736H51.0976V156.76H73.0496V165.144H42.0976V124.672H73.0496V133.056ZM72.0496 157.76V164.144H43.0976V125.672H72.0496V132.056H50.0976V141.352H69.9776V147.736H50.0976V157.76H72.0496ZM107.377 165.144L104.465 158.2H87.2028L84.2908 165.144H74.3403L91.2478 124.672H100.364L117.271 165.144H107.377ZM86.5378 157.2H105.13L108.042 164.144H115.77L99.6978 125.672H91.9138L75.8418 164.144H83.6258L86.5378 157.2ZM89.0578 151.152H102.61L95.8338 134.968L89.0578 151.152ZM90.5606 150.152H101.107L95.8338 137.557L90.5606 150.152ZM147.239 157.76V164.144H120.527V125.672H127.471V157.76H147.239ZM128.471 156.76H148.239V165.144H119.527V124.672H128.471V156.76ZM175.995 134.833C172.822 132.323 169.254 130.936 165.734 130.936C161.87 130.936 159.238 133.288 159.238 135.976C159.238 139.112 162.094 140.232 168.198 141.632C176.206 143.424 181.582 146 181.582 153C181.582 159.888 176.318 164.76 167.134 164.76C160.526 164.76 154.926 162.52 150.67 158.544C150.67 158.544 150.67 158.544 150.67 158.544L154.702 153.56C154.951 153.785 155.202 154.004 155.457 154.217C158.811 157.026 162.673 158.768 167.358 158.768C172.118 158.768 174.582 156.416 174.582 153.672C174.582 150.48 171.838 149.416 165.678 147.96C157.726 146.112 152.182 143.816 152.182 136.592C152.182 129.872 157.894 124.944 166.014 124.944C172.118 124.944 176.71 127.016 180.574 130.32L176.766 135.472C176.512 135.252 176.255 135.039 175.995 134.833ZM168.419 140.657C165.349 139.952 163.254 139.349 161.927 138.588C161.282 138.218 160.874 137.84 160.622 137.447C160.377 137.064 160.238 136.599 160.238 135.976C160.238 134.027 162.215 131.936 165.734 131.936C169.254 131.936 172.893 133.439 176.111 136.228L176.928 136.936L181.932 130.165L181.224 129.56C177.198 126.117 172.38 123.944 166.014 123.944C157.503 123.944 151.182 129.172 151.182 136.592C151.182 140.524 152.721 143.207 155.365 145.104C157.923 146.94 161.474 148.01 165.449 148.933C168.554 149.667 170.631 150.27 171.937 151.029C172.569 151.397 172.963 151.771 173.207 152.164C173.445 152.549 173.582 153.024 173.582 153.672C173.582 154.72 173.121 155.706 172.146 156.456C171.154 157.218 169.582 157.768 167.358 157.768C162.62 157.768 158.761 155.884 155.373 152.818L154.589 152.109L149.307 158.639L149.987 159.275C154.439 163.433 160.287 165.76 167.134 165.76C171.896 165.76 175.757 164.497 178.447 162.227C181.152 159.945 182.582 156.717 182.582 153C182.582 149.185 181.089 146.493 178.49 144.56C175.965 142.684 172.44 141.557 168.419 140.657ZM101.979 20.88C101.979 31.688 92.7385 40.816 81.8185 40.816C70.8425 40.816 61.6025 31.688 61.6025 20.88C61.6025 10.072 70.8425 1 81.8185 1C92.7385 1 101.979 10.072 101.979 20.88ZM68.7145 20.88C68.7145 28.272 74.7065 34.432 81.8185 34.432C88.8745 34.432 94.8105 28.272 94.8105 20.88C94.8105 13.544 88.8745 7.384 81.8185 7.384C74.7065 7.384 68.7145 13.544 68.7145 20.88ZM157.504 8.112V20.768H166.464C171.224 20.768 174.528 18.36 174.528 14.44C174.528 10.52 171.224 8.112 166.464 8.112H157.504ZM50.2174 79.408H60.4654C63.8814 79.408 66.3454 77.392 66.3454 74.592C66.3454 71.736 63.8814 69.72 60.4654 69.72H50.2174V79.408ZM50.2174 96.096H61.4734C65.2814 96.096 67.9694 93.8 67.9694 90.608C67.9694 87.416 65.2814 85.12 61.4734 85.12H50.2174V96.096ZM8 157.816H15.28C23.4 157.816 29.112 152.44 29.112 144.88C29.112 137.32 23.4 132 15.28 132H8V157.816Z" fill="#DC7F9B"/>
</svg>
