<svg width="356" height="142" viewBox="0 0 356 142" fill="none" xmlns="http://www.w3.org/2000/svg">
<path fill-rule="evenodd" clip-rule="evenodd" d="M54.6783 26.9551C54.6783 41.6273 42.1644 53.9835 27.3758 53.9835C12.5155 53.9835 0 41.629 0 26.9551C0 12.2779 12.5189 0 27.3758 0C42.1611 0 54.6783 12.2795 54.6783 26.9551ZM11.1409 26.9551C11.1409 36.1582 18.6005 43.7882 27.3758 43.7882C36.0703 43.7882 43.4641 36.166 43.4641 26.9551C43.4641 17.82 36.0727 10.1952 27.3758 10.1952C18.5981 10.1952 11.1409 17.8278 11.1409 26.9551ZM107.639 0.880167V30.6958C107.639 37.479 105.269 43.3114 101.161 47.4507C97.0535 51.5904 91.2604 53.9835 84.5147 53.9835C77.8046 53.9835 72.0123 51.5897 67.8961 47.4514C63.7801 43.3133 61.39 37.4811 61.39 30.6958V0.880167H72.3843V30.4024C72.3843 38.3444 77.4805 43.8616 84.5147 43.8616C91.6253 43.8616 96.7183 38.3408 96.7183 30.4024V0.880167H107.639ZM62.3062 30.6958C62.3062 43.8249 71.5414 53.0666 84.5147 53.0666C97.5612 53.0666 106.723 43.8249 106.723 30.6958V1.79701H97.6345V30.4024C97.6345 38.764 92.2107 44.7784 84.5147 44.7784C76.892 44.7784 71.4681 38.764 71.4681 30.4024V1.79701H62.3062V30.6958ZM160.233 53.1033H147.582L135.708 36.1601H127.352V53.1033H116.358V0.880167H139.19C150.354 0.880167 158.943 8.07628 158.943 18.5201C158.943 26.1756 154.255 32.1313 147.31 34.7582L160.233 53.1033ZM145.859 34.2898C146.165 34.1939 146.467 34.0917 146.764 33.9832C153.521 31.5182 158.026 25.8267 158.026 18.5201C158.026 8.69163 149.964 1.79701 139.19 1.79701H117.274V52.1865H126.436V35.2433H136.184L148.058 52.1865H158.466L145.859 34.2898ZM138.163 11.1488H127.352V25.8915H138.163C141.135 25.8915 143.56 25.1385 145.219 23.8626C146.854 22.6048 147.802 20.8007 147.802 18.5201C147.802 16.2396 146.854 14.4355 145.219 13.1776C143.56 11.9018 141.135 11.1488 138.163 11.1488ZM1.90568 141.12V88.8967H24.7372C35.9013 88.8967 44.4903 96.0928 44.4903 106.537C44.4903 116.981 35.9013 124.177 24.7372 124.177H12.9V141.12H1.90568ZM11.9838 140.203H2.82187V89.8135H24.7372C35.5116 89.8135 43.5741 96.7082 43.5741 106.537C43.5741 116.365 35.5116 123.26 24.7372 123.26H11.9838V140.203ZM12.9 99.1653V113.908H23.711C26.6824 113.908 29.1073 113.155 30.7663 111.879C32.402 110.621 33.3494 108.817 33.3494 106.537C33.3494 104.256 32.402 102.452 30.7663 101.194C29.1073 99.9183 26.6824 99.1653 23.711 99.1653H12.9ZM88.503 141.12L84.6916 132.025H61.5761L57.7648 141.12H45.5917L67.393 88.8967H78.8014L100.603 141.12H88.503ZM60.9668 131.108H85.3009L89.1122 140.203H99.227L78.1912 89.8135H68.0032L46.9674 140.203H57.1555L60.9668 131.108ZM64.2651 123.186H82.0026L73.1339 101.989L64.2651 123.186ZM65.642 122.27H80.6257L73.1339 104.363L65.642 122.27ZM150.735 132.831L150.093 133.502C145.094 138.732 138.116 142 130.447 142C115.587 142 103.072 129.645 103.072 114.972C103.072 100.294 115.59 88.0165 130.447 88.0165C138.115 88.0165 145.091 91.2837 150.088 96.4363L150.739 97.1075L142.834 104.485L142.212 103.759C139.294 100.353 134.997 98.2118 130.447 98.2118C121.67 98.2118 114.212 105.844 114.212 114.972C114.212 124.175 121.672 131.805 130.447 131.805C135.067 131.805 139.295 129.666 142.292 126.249L142.915 125.539L150.735 132.831ZM148.786 133.52C149.005 133.307 149.22 133.089 149.431 132.868L142.981 126.854C142.779 127.084 142.572 127.309 142.36 127.528C139.255 130.73 135.044 132.722 130.447 132.722C121.139 132.722 113.296 124.653 113.296 114.972C113.296 105.363 121.139 97.2949 130.447 97.2949C134.972 97.2949 139.241 99.2844 142.293 102.483C142.504 102.704 142.709 102.93 142.908 103.163L149.431 97.0749C149.218 96.8555 149.001 96.6396 148.781 96.4273C143.999 91.8159 137.524 88.9334 130.447 88.9334C116.081 88.9334 103.988 100.816 103.988 114.972C103.988 129.128 116.081 141.083 130.447 141.083C137.527 141.083 144.003 138.199 148.786 133.52ZM156.169 141.12V88.8967H167.163V112.061L187.9 88.8967H201.592L180.56 112.087L202.848 141.12H189.25L172.996 119.911L167.163 126.187V141.12H156.169ZM166.247 125.827L173.063 118.492L189.701 140.203H200.989L179.367 112.038L199.523 89.8135H188.309L166.247 114.458V89.8135H157.085V140.203H166.247V125.827ZM246.546 141.12L242.735 132.025H219.619L215.808 141.12H203.635L225.436 88.8967H236.844L258.646 141.12H246.546ZM219.01 131.108H243.344L247.155 140.203H257.27L236.234 89.8135H226.046L205.01 140.203H215.199L219.01 131.108ZM222.308 123.186H240.046L231.177 101.989L222.308 123.186ZM223.685 122.27H238.669L231.177 104.363L223.685 122.27ZM285.038 120.876V111.561H308.346V133.236L308.092 133.502C303.067 138.759 294.977 142 287.42 142C272.492 142 259.898 129.65 259.898 114.972C259.898 100.29 272.495 88.0165 287.42 88.0165C294.971 88.0165 303.063 91.1797 308.092 96.4412L308.733 97.1121L300.834 104.484L300.212 103.761C297.257 100.323 292.102 98.2118 287.42 98.2118C278.562 98.2118 271.039 105.852 271.039 114.972C271.039 124.167 278.564 131.805 287.42 131.805C290.887 131.805 294.629 130.649 297.572 128.65V120.876H285.038ZM298.488 129.128C295.336 131.401 291.232 132.722 287.42 132.722C278.038 132.722 270.123 124.653 270.123 114.972C270.123 105.363 278.038 97.2949 287.42 97.2949C292.022 97.2949 297.075 99.2273 300.286 102.488C300.501 102.707 300.708 102.932 300.907 103.163L307.429 97.0754C307.429 97.0752 307.429 97.0745 307.429 97.0743C307.219 96.8544 307.003 96.6382 306.782 96.4259C301.911 91.7518 294.431 88.9334 287.42 88.9334C272.981 88.9334 260.814 100.816 260.814 114.972C260.814 129.128 272.981 141.083 287.42 141.083C294.75 141.083 302.592 137.929 307.43 132.868V112.478H285.954V119.959H298.488V129.128ZM356 99.0919H327.268V109.434H353.288V119.629H327.268V130.925H356V141.12H316.274V88.8967H356V99.0919ZM355.084 131.841V140.203H317.19V89.8135H355.084V98.1751H326.352V110.351H352.372V118.712H326.352V131.841H355.084ZM53.7621 26.9551C53.7621 41.1111 41.6684 53.0666 27.3758 53.0666C13.0099 53.0666 0.916192 41.1111 0.916192 26.9551C0.916192 12.7991 13.0099 0.916838 27.3758 0.916838C41.6684 0.916838 53.7621 12.7991 53.7621 26.9551ZM10.2247 26.9551C10.2247 36.6369 18.0673 44.7051 27.3758 44.7051C36.611 44.7051 44.3803 36.6369 44.3803 26.9551C44.3803 17.3466 36.611 9.27841 27.3758 9.27841C18.0673 9.27841 10.2247 17.3466 10.2247 26.9551ZM126.436 10.2319V26.8084H138.163C144.394 26.8084 148.718 23.6544 148.718 18.5201C148.718 13.3858 144.394 10.2319 138.163 10.2319H126.436ZM11.9838 114.825H23.711C29.9411 114.825 34.2656 111.671 34.2656 106.537C34.2656 101.402 29.9411 98.2485 23.711 98.2485H11.9838V114.825Z" fill="#83C5BE"/>
</svg>
