<svg width="292" height="179" viewBox="0 0 292 179" fill="none" xmlns="http://www.w3.org/2000/svg">
<path opacity="0.5" d="M221.168 2.632V2.132H220.668H201.756H201.256V2.632V43.528C201.256 46.7323 200.236 49.3115 198.506 51.087C196.776 52.8617 194.296 53.876 191.292 53.876C188.338 53.876 185.881 52.8631 184.163 51.0882C182.444 49.3122 181.424 46.7323 181.424 43.528V2.632V2.132H180.924H162.012H161.512V2.632V43.912C161.512 52.297 164.61 59.3444 169.902 64.2932C175.191 69.2392 182.639 72.06 191.292 72.06C199.992 72.06 207.464 69.2397 212.765 64.2936C218.069 59.3447 221.168 52.2971 221.168 43.912V2.632ZM268.747 70.0671L268.888 70.332H269.188H289.828H290.672L290.267 69.592L277.152 45.627C283.682 41.5655 287.64 34.6997 287.64 26.44C287.64 12.122 276.83 2.132 262.18 2.132H232.996H232.496V2.632V69.832V70.332H232.996H251.524H252.024V69.832V49.788H257.944L268.747 70.0671ZM90.992 176.332H91.5726L91.4865 175.758L81.4065 108.558L81.3426 108.132H80.912H62.48H62.1524L62.0216 108.432L46.5454 143.953L31.1628 108.433L31.0323 108.132H30.704H12.176H11.746L11.6816 108.557L1.50564 175.757L1.41859 176.332H2H20.816H21.2533L21.3115 175.899L26.2654 139.02L43.3054 176.232L43.439 176.524H43.76H49.232H49.5526L49.6864 176.233L66.8217 138.922L71.7765 175.898L71.8345 176.332H72.272H90.992ZM144.025 159.3H119.085V150.22H140.665H141.165V149.72V134.552V134.052H140.665H119.085V125.164H143.161H143.661V124.664V108.632V108.132H143.161H100.153H99.6525V108.632V175.832V176.332H100.153H144.025H144.525V175.832V159.8V159.3H144.025ZM196.669 108.132H196.169V108.632V142.429L171.249 108.337L171.099 108.132H170.845H154.621H154.121V108.632V175.832V176.332H154.621H172.573H173.073V175.832V140.975L198.858 176.128L199.008 176.332H199.261H214.621H215.121V175.832V108.632V108.132H214.621H196.669ZM286.043 108.632V108.132H285.543H266.631H266.131V108.632V149.528C266.131 152.732 265.111 155.311 263.381 157.087C261.651 158.862 259.171 159.876 256.167 159.876C253.213 159.876 250.756 158.863 249.038 157.088C247.319 155.312 246.299 152.732 246.299 149.528V108.632V108.132H245.799H226.887H226.387V108.632V149.912C226.387 158.297 229.485 165.344 234.777 170.293C240.066 175.239 247.514 178.06 256.167 178.06C264.867 178.06 272.339 175.24 277.64 170.294C282.944 165.345 286.043 158.297 286.043 149.912V108.632ZM116.313 72.06C138.167 72.06 153.773 57.17 153.773 36.328C153.773 15.3909 138.167 0.5 116.313 0.5C94.4572 0.5 78.8528 15.4878 78.8528 36.328C78.8528 57.0731 94.4581 72.06 116.313 72.06ZM116.313 53.876C106.42 53.876 99.0527 46.427 99.0527 36.328C99.0527 26.1313 106.422 18.684 116.313 18.684C126.296 18.684 133.477 26.0316 133.477 36.328C133.477 46.5266 126.298 53.876 116.313 53.876ZM252.024 19.644H259.972C262.466 19.644 264.375 20.3814 265.656 21.5739C266.934 22.7643 267.632 24.4496 267.632 26.44C267.632 28.38 266.935 30.0673 265.654 31.2716C264.371 32.4771 262.461 33.236 259.972 33.236H252.024V19.644Z" stroke="#1B75BB"/>
</svg>
