<svg width="309" height="280" viewBox="0 0 309 280" fill="none" xmlns="http://www.w3.org/2000/svg">
<path fill-rule="evenodd" clip-rule="evenodd" d="M60.6965 67.9999H44.616L29.064 45.8239H17.8161V67.9999H3.81605V0.0478516H33.5201C48.0574 0.0478516 59.1921 9.40068 59.1921 22.9359C59.1921 32.9506 53.0048 40.7273 43.8435 44.0922L60.6965 67.9999ZM42.2561 43.5759C42.59 43.4713 42.9201 43.3609 43.2462 43.2449C52.2041 40.0574 58.1921 32.5691 58.1921 22.9359C58.1921 10.0718 47.6321 1.04785 33.5201 1.04785H4.81605V66.9999H16.8161V44.8239H29.5841L45.1361 66.9999H58.7681L42.2561 43.5759ZM32.1761 13.0879H17.8161V32.7839H32.1761C36.0992 32.7839 39.3219 31.7905 41.5387 30.0869C43.73 28.403 45.0001 25.9832 45.0001 22.9359C45.0001 19.8885 43.73 17.4687 41.5387 15.7848C39.3219 14.0812 36.0992 13.0879 32.1761 13.0879ZM119.667 12.9919H82.0348V27.6959H116.115V40.6399H82.0348V67.9999H68.0348V0.0478516H119.667V12.9919ZM81.0348 66.9999H69.0348V1.04785H118.667V11.9919H81.0348V28.6959H115.115V39.6399H81.0348V66.9999ZM21.5761 174V118.992H0.456055V106.048H56.6001V118.992H35.4801V174H21.5761ZM34.4801 173H22.5761V117.992H1.45605V107.048H55.6001V117.992H34.4801V173ZM121.728 174H105.647L90.0952 151.824H78.8473V174H64.8473V106.048H94.5513C109.089 106.048 120.223 115.401 120.223 128.936C120.223 138.951 114.036 146.727 104.875 150.092L121.728 174ZM103.287 149.576C103.621 149.471 103.951 149.361 104.277 149.245C113.235 146.057 119.223 138.569 119.223 128.936C119.223 116.072 108.663 107.048 94.5513 107.048H65.8473V173H77.8473V150.824H90.6153L106.167 173H119.799L103.287 149.576ZM93.2073 119.088H78.8473V138.784H93.2073C97.1305 138.784 100.353 137.79 102.57 136.087C104.761 134.403 106.031 131.983 106.031 128.936C106.031 125.888 104.761 123.469 102.57 121.785C100.353 120.081 97.1305 119.088 93.2073 119.088ZM180.698 118.992H143.066V132.928H177.146V145.872H143.066V161.056H180.698V174H129.066V106.048H180.698V118.992ZM179.698 162.056V173H130.066V107.048H179.698V117.992H142.066V133.928H176.146V144.872H142.066V162.056H179.698ZM240.734 174L235.742 162.096H205.2L200.208 174H184.698L213.085 106.048H227.761L256.149 174H240.734ZM204.535 161.096H236.407L241.399 173H254.647L227.095 107.048H213.751L186.199 173H199.543L204.535 161.096ZM208.855 150.728H232.087L220.471 122.984L208.855 150.728ZM210.358 149.728H230.584L220.471 125.573L210.358 149.728ZM273.951 174V118.992H252.831V106.048H308.975V118.992H287.855V174H273.951ZM286.855 173H274.951V117.992H253.831V107.048H307.975V117.992H286.855V173ZM4.68005 280V212.048H18.2769L39.378 251.169L60.5725 212.048H74.0721V280H60.1681V238.881L39.3741 277.263L18.6801 238.896V280H4.68005ZM17.6801 234.936L39.3761 275.16L61.1681 234.936V279H73.0721V213.048H61.1681L39.3761 253.272L17.6801 213.048H5.68005V279H17.6801V234.936ZM138.323 224.992H100.691V238.928H134.771V251.872H100.691V267.056H138.323V280H86.6911V212.048H138.323V224.992ZM137.323 268.056V279H87.6911V213.048H137.323V223.992H99.6911V239.928H133.771V250.872H99.6911V268.056H137.323ZM148.68 280V212.048H162.179L195.528 256.421V212.048H209.432V280H196.029L162.68 235.627V280H148.68ZM161.68 232.632L196.528 279H208.432V213.048H196.528V259.416L161.68 213.048H149.68V279H161.68V232.632ZM239.732 280V224.992H218.612V212.048H274.756V224.992H253.636V280H239.732ZM252.636 279H240.732V223.992H219.612V213.048H273.756V223.992H252.636V279ZM16.8161 12.0879V33.7839H32.1761C40.3361 33.7839 46.0001 29.6559 46.0001 22.9359C46.0001 16.2159 40.3361 12.0879 32.1761 12.0879H16.8161ZM77.8473 118.088V139.784H93.2073C101.367 139.784 107.031 135.656 107.031 128.936C107.031 122.216 101.367 118.088 93.2073 118.088H77.8473Z" fill="#83C5BE"/>
</svg>
