<svg width="258" height="176" viewBox="0 0 258 176" fill="none" xmlns="http://www.w3.org/2000/svg">
<path fill-rule="evenodd" clip-rule="evenodd" d="M45.3334 18.4016C39.7561 13.8163 33.4277 11.2721 27.1871 11.2721C20.5631 11.2721 16.0511 15.3041 16.0511 19.9121C16.0511 25.2881 20.9471 27.2081 31.4111 29.6081C45.1391 32.6801 54.3551 37.0961 54.3551 49.0961C54.3551 60.9041 45.3311 69.2561 29.5871 69.2561C18.2591 69.2561 8.65914 65.4161 1.36314 58.6001L8.27514 50.0561C8.52335 50.2806 8.77318 50.5018 9.02468 50.7195C14.9011 55.8059 21.6857 58.9841 29.9711 58.9841C38.1311 58.9841 42.3551 54.9521 42.3551 50.2481C42.3551 44.7761 37.6511 42.9521 27.0911 40.4561C13.4591 37.2881 3.95514 33.3521 3.95514 20.9681C3.95514 9.44806 13.7471 1.00006 27.6671 1.00006C38.1311 1.00006 46.0031 4.55206 52.6271 10.2161L46.0991 19.0481C45.8455 18.8283 45.5903 18.6128 45.3334 18.4016ZM26.8628 41.4297C20.0477 39.8458 14.0858 38.0361 9.82809 34.9805C5.48432 31.8632 2.95514 27.4797 2.95514 20.9681C2.95514 8.74769 13.3556 6.10352e-05 27.6671 6.10352e-05C38.3933 6.10352e-05 46.4909 3.65339 53.277 9.45603L53.985 10.0614L46.2609 20.5116L45.4442 19.8038C39.8265 14.9351 33.427 12.2721 27.1871 12.2721C20.908 12.2721 17.0511 16.0431 17.0511 19.9121C17.0511 21.0951 17.3175 22.0297 17.8221 22.8188C18.333 23.6178 19.1322 24.3362 20.3046 25.0086C22.6875 26.3751 26.3819 27.4285 31.6317 28.6327C38.5135 30.1728 44.4278 32.0798 48.6277 35.2015C52.9024 38.3788 55.3551 42.7809 55.3551 49.0961C55.3551 55.2728 52.9855 60.6006 48.52 64.3684C44.0706 68.1226 37.6287 70.2561 29.5871 70.2561C18.0198 70.2561 8.17173 66.3292 0.680475 59.3308L0 58.6951L8.16238 48.6055L8.94605 49.3145C14.8543 54.6601 21.6327 57.9841 29.9711 57.9841C33.8953 57.9841 36.7575 57.0143 38.6136 55.5873C40.4539 54.1725 41.3551 52.2765 41.3551 50.2481C41.3551 49.0305 41.0958 48.0805 40.6047 47.2867C40.109 46.4854 39.3318 45.7703 38.1803 45.1004C35.8343 43.7357 32.1672 42.6834 26.8628 41.4297ZM65.0649 69.2001V1.24806H79.0649V31.8891L106.514 1.24806H139.736L157.324 30.1896L175.192 1.24806H191.196L164.365 43.7215V69.2001H150.173V43.7224L123.516 1.67855L96.5509 31.3894L125.598 69.2001H108.292L86.9194 41.3315L79.0649 49.7772V69.2001H65.0649ZM78.0649 49.3841L86.9929 39.7841L108.785 68.2001H123.569L95.2489 31.3361L121.649 2.24806H106.961L78.0649 34.5041V2.24806H66.0649V68.2001H78.0649V49.3841ZM151.173 43.4321V68.2001H163.365V43.4321L189.381 2.24806H175.749L157.317 32.1041L139.173 2.24806H125.061L151.173 43.4321ZM196.786 69.2001V1.24806H210.285L243.634 45.621V1.24806H257.538V69.2001H244.135L210.786 24.8271V69.2001H196.786ZM209.786 21.8321L244.634 68.2001H256.538V2.24806H244.634V48.6161L209.786 2.24806H197.786V68.2001H209.786V21.8321ZM4.20314 175.2V107.248H33.9071C48.4445 107.248 59.5791 116.601 59.5791 130.136C59.5791 143.671 48.4445 153.024 33.9071 153.024H18.2031V175.2H4.20314ZM17.2031 174.2H5.20314V108.248H33.9071C48.0191 108.248 58.5791 117.272 58.5791 130.136C58.5791 143 48.0191 152.024 33.9071 152.024H17.2031V174.2ZM18.2031 120.288V139.984H32.5631C36.4863 139.984 39.709 138.991 41.9258 137.287C44.1171 135.603 45.3871 133.183 45.3871 130.136C45.3871 127.089 44.1171 124.669 41.9258 122.985C39.709 121.281 36.4863 120.288 32.5631 120.288H18.2031ZM123.896 175.2H107.816L92.2635 153.024H81.0156V175.2H67.0156V107.248H96.7196C111.257 107.248 122.392 116.601 122.392 130.136C122.392 140.151 116.204 147.928 107.043 151.292L123.896 175.2ZM105.456 150.776C105.79 150.672 106.12 150.561 106.446 150.445C115.404 147.258 121.392 139.769 121.392 130.136C121.392 117.272 110.832 108.248 96.7196 108.248H68.0156V174.2H80.0156V152.024H92.7836L108.336 174.2H121.968L105.456 150.776ZM95.3756 120.288H81.0156V139.984H95.3756C99.2988 139.984 102.521 138.991 104.738 137.287C106.93 135.603 108.2 133.183 108.2 130.136C108.2 127.089 106.93 124.669 104.738 122.985C102.521 121.281 99.2988 120.288 95.3756 120.288ZM182.866 120.192H145.234V134.896H179.314V147.84H145.234V175.2H131.234V107.248H182.866V120.192ZM144.234 174.2H132.234V108.248H181.866V119.192H144.234V135.896H178.314V146.84H144.234V174.2ZM17.2031 140.984H32.5631C40.7231 140.984 46.3871 136.856 46.3871 130.136C46.3871 123.416 40.7231 119.288 32.5631 119.288H17.2031V140.984ZM80.0156 119.288V140.984H95.3756C103.536 140.984 109.2 136.856 109.2 130.136C109.2 123.416 103.536 119.288 95.3756 119.288H80.0156Z" fill="#DBBBF5"/>
</svg>
