<svg width="197" height="180" viewBox="0 0 197 180" fill="none" xmlns="http://www.w3.org/2000/svg">
<path d="M31.693 29.8L31.4694 30.7747L31.4746 30.7759L31.693 29.8ZM46.993 18.8L46.338 19.5557L47.1548 20.2635L47.7971 19.3944L46.993 18.8ZM53.793 9.6L54.5971 10.1944L55.1508 9.44532L54.4429 8.83996L53.793 9.6ZM27.193 41.1L27.423 40.1268L27.4193 40.126L27.193 41.1ZM7.59297 51.1L8.26388 50.3585L7.48021 49.6494L6.81552 50.4711L7.59297 51.1ZM0.392969 60L-0.384479 59.3711L-0.970167 60.095L-0.289692 60.7307L0.392969 60ZM29.793 72.1C38.1625 72.1 44.8624 69.8795 49.4878 65.9768C54.1293 62.0606 56.593 56.5227 56.593 50.1H54.593C54.593 55.9773 52.3567 60.9394 48.1981 64.4482C44.0235 67.9705 37.8234 70.1 29.793 70.1V72.1ZM56.593 50.1C56.593 43.5349 54.0443 38.9618 49.602 35.6599C45.2342 32.4134 39.0801 30.4283 31.9113 28.8241L31.4746 30.7759C38.6058 32.3717 44.4018 34.2866 48.4089 37.2651C52.3417 40.1882 54.593 44.1651 54.593 50.1H56.593ZM31.9165 28.8253C26.4471 27.5709 22.5918 26.4723 20.1029 25.045C18.8777 24.3424 18.0395 23.5898 17.5026 22.7503C16.9721 21.9206 16.693 20.939 16.693 19.7H14.693C14.693 21.261 15.0514 22.6294 15.8177 23.8278C16.5777 25.0164 17.6957 25.9701 19.108 26.78C21.8942 28.3777 26.0388 29.5291 31.4694 30.7747L31.9165 28.8253ZM16.693 19.7C16.693 15.639 20.7379 11.7 27.293 11.7V9.69999C20.0481 9.69999 14.693 14.161 14.693 19.7H16.693ZM27.293 11.7C33.8048 11.7 40.4804 14.479 46.338 19.5557L47.6479 18.0443C41.5056 12.721 34.3811 9.69999 27.293 9.69999V11.7ZM47.7971 19.3944L54.5971 10.1944L52.9888 9.00561L46.1888 18.2056L47.7971 19.3944ZM54.4429 8.83996C47.3807 2.80133 38.9551 -1 27.793 -1V0.999995C38.4308 0.999995 46.4052 4.59866 53.1431 10.36L54.4429 8.83996ZM27.793 -1C12.9014 -1 2.09297 8.09962 2.09297 20.8H4.09297C4.09297 9.50037 13.6845 0.999995 27.793 0.999995V-1ZM2.09297 20.8C2.09297 27.5697 4.72116 32.1231 9.23492 35.3624C13.6631 38.5403 19.8667 40.4241 26.9666 42.074L27.4193 40.126C20.3193 38.4759 14.4729 36.6597 10.401 33.7376C6.41478 30.8768 4.09297 26.9303 4.09297 20.8H2.09297ZM26.9629 42.0732C32.4882 43.3792 36.3149 44.4765 38.7651 45.9019C39.9686 46.602 40.7841 47.3512 41.3051 48.1933C41.8214 49.0279 42.093 50.0254 42.093 51.3H44.093C44.093 49.7246 43.752 48.3471 43.0059 47.1411C42.2644 45.9425 41.1673 44.9855 39.7708 44.1731C37.0211 42.5735 32.8977 41.4208 27.423 40.1268L26.9629 42.0732ZM42.093 51.3C42.093 53.4264 41.1478 55.4134 39.221 56.8947C37.2783 58.3882 34.2871 59.4 30.193 59.4V61.4C34.5988 61.4 38.0576 60.3118 40.44 58.4803C42.8382 56.6366 44.093 54.0736 44.093 51.3H42.093ZM30.193 59.4C21.4946 59.4 14.4241 55.932 8.26388 50.3585L6.92206 51.8415C13.3618 57.668 20.8914 61.4 30.193 61.4V59.4ZM6.81552 50.4711L-0.384479 59.3711L1.17042 60.6289L8.37042 51.7289L6.81552 50.4711ZM-0.289692 60.7307C7.50557 68.0131 17.7536 72.1 29.793 72.1V70.1C18.2323 70.1 8.48037 66.1869 1.07563 59.2693L-0.289692 60.7307ZM67.7906 70H66.7906V71H67.7906V70ZM80.2906 70V71H81.2906V70H80.2906ZM80.2906 50.4L79.5584 49.719L79.2906 50.0069V50.4H80.2906ZM89.5906 40.4L90.3841 39.7915L89.6641 38.8526L88.8584 39.719L89.5906 40.4ZM112.291 70L111.497 70.6085L111.797 71H112.291V70ZM127.691 70V71H129.72L128.484 69.3908L127.691 70ZM98.1906 31.6L97.4501 30.9279L96.8886 31.5466L97.3976 32.2092L98.1906 31.6ZM125.691 1.3L126.431 1.97206L127.949 0.299996H125.691V1.3ZM110.391 1.3V0.299996H109.944L109.646 0.632748L110.391 1.3ZM80.2906 34.9H79.2906V37.515L81.0355 35.5672L80.2906 34.9ZM80.2906 1.3H81.2906V0.299996H80.2906V1.3ZM67.7906 1.3V0.299996H66.7906V1.3H67.7906ZM67.7906 71H80.2906V69H67.7906V71ZM81.2906 70V50.4H79.2906V70H81.2906ZM81.0229 51.081L90.3229 41.081L88.8584 39.719L79.5584 49.719L81.0229 51.081ZM88.7971 41.0085L111.497 70.6085L113.084 69.3915L90.3841 39.7915L88.7971 41.0085ZM112.291 71H127.691V69H112.291V71ZM128.484 69.3908L98.9836 30.9908L97.3976 32.2092L126.898 70.6092L128.484 69.3908ZM98.9311 32.2721L126.431 1.97206L124.95 0.627932L97.4501 30.9279L98.9311 32.2721ZM125.691 0.299996H110.391V2.3H125.691V0.299996ZM109.646 0.632748L79.5458 34.2328L81.0355 35.5672L111.135 1.96724L109.646 0.632748ZM81.2906 34.9V1.3H79.2906V34.9H81.2906ZM80.2906 0.299996H67.7906V2.3H80.2906V0.299996ZM66.7906 1.3V70H68.7906V1.3H66.7906ZM156.445 70H155.445V71H156.445V70ZM169.145 70V71H170.145V70H169.145ZM169.145 44.2L168.3 43.6659L168.145 43.9106V44.2H169.145ZM196.245 1.3L197.091 1.83406L198.06 0.299996H196.245V1.3ZM182.045 1.3V0.299996H181.487L181.194 0.774678L182.045 1.3ZM162.845 32.4L161.991 32.9193L162.839 34.3145L163.696 32.9253L162.845 32.4ZM143.945 1.3L144.8 0.78066L144.508 0.299996H143.945V1.3ZM129.245 1.3V0.299996H127.427L128.401 1.83547L129.245 1.3ZM156.445 44.2H157.445V43.9097L157.29 43.6645L156.445 44.2ZM156.445 71H169.145V69H156.445V71ZM170.145 70V44.2H168.145V70H170.145ZM169.991 44.7341L197.091 1.83406L195.4 0.765929L168.3 43.6659L169.991 44.7341ZM196.245 0.299996H182.045V2.3H196.245V0.299996ZM181.194 0.774678L161.994 31.8747L163.696 32.9253L182.896 1.82531L181.194 0.774678ZM163.7 31.8807L144.8 0.78066L143.091 1.81933L161.991 32.9193L163.7 31.8807ZM143.945 0.299996H129.245V2.3H143.945V0.299996ZM128.401 1.83547L155.601 44.7355L157.29 43.6645L130.09 0.764523L128.401 1.83547ZM155.445 44.2V70H157.445V44.2H155.445ZM9.17813 180H8.17813V181H9.17813V180ZM21.6781 180V181H22.6781V180H21.6781ZM21.6781 156.9V155.9H20.6781V156.9H21.6781ZM9.17813 111.3V110.3H8.17813V111.3H9.17813ZM21.6781 145.4H20.6781V146.4H21.6781V145.4ZM21.6781 122.8V121.8H20.6781V122.8H21.6781ZM9.17813 181H21.6781V179H9.17813V181ZM22.6781 180V156.9H20.6781V180H22.6781ZM21.6781 157.9H39.0781V155.9H21.6781V157.9ZM39.0781 157.9C54.2035 157.9 65.7781 148.171 65.7781 134.1H63.7781C63.7781 146.829 53.3527 155.9 39.0781 155.9V157.9ZM65.7781 134.1C65.7781 120.029 54.2035 110.3 39.0781 110.3V112.3C53.3527 112.3 63.7781 121.371 63.7781 134.1H65.7781ZM39.0781 110.3H9.17813V112.3H39.0781V110.3ZM8.17813 111.3V180H10.1781V111.3H8.17813ZM22.6781 145.4V122.8H20.6781V145.4H22.6781ZM21.6781 123.8H37.6781V121.8H21.6781V123.8ZM37.6781 123.8C41.7713 123.8 45.138 124.836 47.4563 126.618C49.7491 128.38 51.0781 130.913 51.0781 134.1H53.0781C53.0781 130.287 51.4572 127.17 48.675 125.032C45.9183 122.914 42.085 121.8 37.6781 121.8V123.8ZM51.0781 134.1C51.0781 137.287 49.7491 139.82 47.4563 141.582C45.138 143.364 41.7713 144.4 37.6781 144.4V146.4C42.085 146.4 45.9183 145.286 48.675 143.168C51.4572 141.03 53.0781 137.913 53.0781 134.1H51.0781ZM37.6781 144.4H21.6781V146.4H37.6781V144.4ZM130.808 180V181H132.736L131.625 179.424L130.808 180ZM113.608 155.6L113.309 154.646L112 155.055L112.79 156.176L113.608 155.6ZM74.6078 111.3V110.3H73.6078V111.3H74.6078ZM74.6078 180H73.6078V181H74.6078V180ZM87.1078 180V181H88.1078V180H87.1078ZM87.1078 156.9V155.9H86.1078V156.9H87.1078ZM100.408 156.9L101.227 156.326L100.928 155.9H100.408V156.9ZM116.608 180L115.789 180.574L116.088 181H116.608V180ZM87.1078 122.8V121.8H86.1078V122.8H87.1078ZM87.1078 145.4H86.1078V146.4H87.1078V145.4ZM131.625 179.424L114.425 155.024L112.79 156.176L129.99 180.576L131.625 179.424ZM113.907 156.554C124.168 153.341 131.208 144.993 131.208 134.1H129.208C129.208 144.007 122.848 151.659 113.309 154.646L113.907 156.554ZM131.208 134.1C131.208 120.029 119.633 110.3 104.508 110.3V112.3C118.782 112.3 129.208 121.371 129.208 134.1H131.208ZM104.508 110.3H74.6078V112.3H104.508V110.3ZM73.6078 111.3V180H75.6078V111.3H73.6078ZM74.6078 181H87.1078V179H74.6078V181ZM88.1078 180V156.9H86.1078V180H88.1078ZM87.1078 157.9H100.408V155.9H87.1078V157.9ZM99.5891 157.474L115.789 180.574L117.427 179.426L101.227 156.326L99.5891 157.474ZM116.608 181H130.808V179H116.608V181ZM87.1078 123.8H103.108V121.8H87.1078V123.8ZM103.108 123.8C107.201 123.8 110.568 124.836 112.886 126.618C115.179 128.38 116.508 130.913 116.508 134.1H118.508C118.508 130.287 116.887 127.17 114.105 125.032C111.348 122.914 107.515 121.8 103.108 121.8V123.8ZM116.508 134.1C116.508 137.287 115.179 139.82 112.886 141.582C110.568 143.364 107.201 144.4 103.108 144.4V146.4C107.515 146.4 111.348 145.286 114.105 143.168C116.887 141.03 118.508 137.913 118.508 134.1H116.508ZM103.108 144.4H87.1078V146.4H103.108V144.4ZM88.1078 145.4V122.8H86.1078V145.4H88.1078ZM193.202 122.7V123.7H194.202V122.7H193.202ZM193.202 111.3H194.202V110.3H193.202V111.3ZM141.502 111.3V110.3H140.502V111.3H141.502ZM141.502 180H140.502V181H141.502V180ZM154.002 180V181H155.002V180H154.002ZM154.002 151.5V150.5H153.002V151.5H154.002ZM189.502 151.5V152.5H190.502V151.5H189.502ZM189.502 140.1H190.502V139.1H189.502V140.1ZM154.002 140.1H153.002V141.1H154.002V140.1ZM154.002 122.7V121.7H153.002V122.7H154.002ZM194.202 122.7V111.3H192.202V122.7H194.202ZM193.202 110.3H141.502V112.3H193.202V110.3ZM140.502 111.3V180H142.502V111.3H140.502ZM141.502 181H154.002V179H141.502V181ZM155.002 180V151.5H153.002V180H155.002ZM154.002 152.5H189.502V150.5H154.002V152.5ZM190.502 151.5V140.1H188.502V151.5H190.502ZM189.502 139.1H154.002V141.1H189.502V139.1ZM155.002 140.1V122.7H153.002V140.1H155.002ZM154.002 123.7H193.202V121.7H154.002V123.7Z" fill="#DBBBF5"/>
</svg>
