<svg width="302" height="390" viewBox="0 0 302 390" fill="none" xmlns="http://www.w3.org/2000/svg">
<path fill-rule="evenodd" clip-rule="evenodd" d="M45.3334 19.2014C39.7561 14.6161 33.4277 12.0718 27.1871 12.0718C20.5631 12.0718 16.0511 16.1038 16.0511 20.7118C16.0511 26.0878 20.9471 28.0078 31.4111 30.4078C45.1391 33.4798 54.3551 37.8958 54.3551 49.8958C54.3551 61.7038 45.3311 70.0558 29.5871 70.0558C18.2591 70.0558 8.65914 66.2158 1.36314 59.3998L8.27514 50.8558C8.52335 51.0804 8.77319 51.3016 9.02468 51.5192C14.9011 56.6057 21.6857 59.7838 29.9711 59.7838C38.1311 59.7838 42.3551 55.7518 42.3551 51.0478C42.3551 45.5758 37.6511 43.7518 27.0911 41.2558C13.4591 38.0878 3.95514 34.1518 3.95514 21.7678C3.95514 10.2478 13.7471 1.7998 27.6671 1.7998C38.1311 1.7998 46.0031 5.3518 52.6271 11.0158L46.0991 19.8478C45.8456 19.628 45.5903 19.4125 45.3334 19.2014ZM26.8629 42.2294C20.0478 40.6455 14.0859 38.8358 9.82809 35.7802C5.48433 32.663 2.95514 28.2795 2.95514 21.7678C2.95514 9.54743 13.3556 0.799805 27.6671 0.799805C38.3933 0.799805 46.4909 4.45314 53.277 10.2558L53.985 10.8611L46.2609 21.3113L45.4442 20.6035C39.8265 15.7348 33.427 13.0718 27.1871 13.0718C20.908 13.0718 17.0511 16.8428 17.0511 20.7118C17.0511 21.8948 17.3175 22.8294 17.8221 23.6186C18.333 24.4175 19.1321 25.136 20.3046 25.8083C22.6875 27.1748 26.3818 28.2282 31.6316 29.4324C38.5135 30.9725 44.4278 32.8795 48.6277 36.0012C52.9024 39.1786 55.3551 43.5807 55.3551 49.8958C55.3551 56.0725 52.9855 61.4004 48.52 65.1681C44.0706 68.9223 37.6287 71.0558 29.5871 71.0558C18.0198 71.0558 8.17174 67.129 0.680481 60.1305L0 59.4948L8.16238 49.4052L8.94605 50.1143C14.8543 55.4598 21.6327 58.7838 29.9711 58.7838C33.8953 58.7838 36.7575 57.814 38.6137 56.387C40.4539 54.9722 41.3551 53.0762 41.3551 51.0478C41.3551 49.8302 41.0958 48.8802 40.6047 48.0864C40.109 47.2852 39.3318 46.57 38.1803 45.9002C35.8343 44.5354 32.1672 43.4832 26.8629 42.2294ZM110.513 58.0558V68.9998H64.7209V3.04781H76.6249V58.0558H110.513ZM77.6249 57.0558H111.513V69.9998H63.7209V2.04781H77.6249V57.0558ZM119.426 69.9998V2.04781H133.33V69.9998H119.426ZM132.33 68.9998H120.426V3.04781H132.33V68.9998ZM145.973 69.9998V2.04781H159.57L180.671 41.1689L201.866 2.04781H215.365V69.9998H201.461V28.8809L180.667 67.2627L159.973 28.8963V69.9998H145.973ZM158.973 24.9358L180.669 65.1598L202.461 24.9358V68.9998H214.365V3.04781H202.461L180.669 43.2718L158.973 3.04781H146.973V68.9998H158.973V24.9358ZM228.848 69.9998V2.04781H242.445L263.546 41.1689L284.741 2.04781H298.24V69.9998H284.336V28.8809L263.542 67.2627L242.848 28.8963V69.9998H228.848ZM241.848 24.9358L263.544 65.1598L285.336 24.9358V68.9998H297.24V3.04781H285.336L263.544 43.2718L241.848 3.04781H229.848V68.9998H241.848V24.9358ZM139.676 176V108.048H153.58V176H139.676ZM152.58 175H140.676V109.048H152.58V175ZM166.223 176V108.048H179.723L213.071 152.421V108.048H226.975V176H213.572L180.223 131.627V176H166.223ZM179.223 128.632L214.071 175H225.975V109.048H214.071V155.416L179.223 109.048H167.223V175H179.223V128.632ZM269.948 149.504V137.712H300.076V165.801L299.798 166.091C293.257 172.929 282.716 177.152 272.868 177.152C253.421 177.152 237.02 161.074 237.02 141.976C237.02 122.874 253.425 106.896 272.868 106.896C282.709 106.896 293.253 111.018 299.798 117.861L300.498 118.592L290.452 127.961L289.773 127.172C285.861 122.622 279.049 119.84 272.868 119.84C261.151 119.84 251.212 129.933 251.212 141.976C251.212 154.117 261.153 164.208 272.868 164.208C277.483 164.208 282.463 162.659 286.364 159.985V149.504H269.948ZM287.364 160.504C283.236 163.48 277.86 165.208 272.868 165.208C260.58 165.208 250.212 154.648 250.212 141.976C250.212 129.4 260.58 118.84 272.868 118.84C278.962 118.84 285.66 121.426 289.858 125.781C290.09 126.022 290.315 126.268 290.532 126.52L299.075 118.552C298.845 118.312 298.611 118.075 298.371 117.841C291.996 111.641 282.12 107.896 272.868 107.896C253.956 107.896 238.02 123.448 238.02 141.976C238.02 160.504 253.956 176.152 272.868 176.152C282.468 176.152 292.74 172.024 299.076 165.4V138.712H270.948V148.504H287.364V160.504ZM18.6451 282V214.048H32.5491V282H18.6451ZM31.5491 281H19.6451V215.048H31.5491V281ZM45.1921 282V214.048H58.6915L92.0401 258.421V214.048H105.944V282H92.5408L59.1921 237.627V282H45.1921ZM58.1921 234.632L93.0401 281H104.944V215.048H93.0401V261.416L58.1921 215.048H46.1921V281H58.1921V234.632ZM170.116 226.992H132.484V241.696H166.564V254.64H132.484V282H118.484V214.048H170.116V226.992ZM131.484 281H119.484V215.048H169.116V225.992H131.484V242.696H165.564V253.64H131.484V281ZM238.946 214.048V252.872C238.946 261.702 235.859 269.284 230.52 274.66C225.18 280.038 217.645 283.152 208.858 283.152C200.118 283.152 192.584 280.037 187.233 274.661C181.883 269.286 178.77 261.705 178.77 252.872V214.048H192.77V252.488C192.77 262.974 199.517 270.304 208.858 270.304C218.299 270.304 225.042 262.97 225.042 252.488V214.048H238.946ZM179.77 252.872C179.77 270.056 191.866 282.152 208.858 282.152C225.946 282.152 237.946 270.056 237.946 252.872V215.048H226.042V252.488C226.042 263.432 218.938 271.304 208.858 271.304C198.874 271.304 191.77 263.432 191.77 252.488V215.048H179.77V252.872ZM291.896 231.201C286.319 226.616 279.99 224.072 273.75 224.072C267.126 224.072 262.614 228.104 262.614 232.712C262.614 238.088 267.51 240.008 277.974 242.408C291.702 245.48 300.918 249.896 300.918 261.896C300.918 273.704 291.894 282.056 276.15 282.056C264.822 282.056 255.222 278.216 247.926 271.4C247.926 271.4 247.926 271.4 247.926 271.4L254.838 262.856C255.086 263.08 255.336 263.302 255.587 263.519C261.464 268.606 268.248 271.784 276.534 271.784C284.694 271.784 288.918 267.752 288.918 263.048C288.918 257.576 284.214 255.752 273.654 253.256C260.022 250.088 250.518 246.152 250.518 233.768C250.518 222.248 260.31 213.8 274.23 213.8C284.694 213.8 292.566 217.352 299.19 223.016L292.662 231.848C292.408 231.628 292.153 231.413 291.896 231.201ZM273.424 254.229C266.61 252.645 260.648 250.836 256.391 247.78C252.047 244.663 249.518 240.279 249.518 233.768C249.518 221.547 259.918 212.8 274.23 212.8C284.956 212.8 293.053 216.453 299.84 222.256L300.547 222.861L292.823 233.311L292.007 232.603C286.389 227.735 279.99 225.072 273.75 225.072C267.471 225.072 263.614 228.843 263.614 232.712C263.614 233.895 263.88 234.829 264.385 235.619C264.896 236.418 265.695 237.136 266.867 237.808C269.25 239.175 272.945 240.228 278.195 241.433C285.076 242.973 290.99 244.88 295.19 248.001C299.465 251.179 301.918 255.581 301.918 261.896C301.918 268.073 299.548 273.4 295.083 277.168C290.633 280.922 284.191 283.056 276.15 283.056C264.582 283.056 254.734 279.129 247.243 272.131L246.562 271.495L254.725 261.405L255.509 262.114C261.417 267.46 268.195 270.784 276.534 270.784C280.458 270.784 283.32 269.814 285.176 268.387C287.016 266.972 287.918 265.076 287.918 263.048C287.918 261.83 287.658 260.88 287.167 260.086C286.672 259.285 285.894 258.57 284.743 257.9C282.397 256.535 278.729 255.483 273.424 254.229ZM133.301 388V320.048H147.205V388H133.301ZM146.205 387H134.301V321.048H146.205V387ZM227.704 353.976C227.704 373.067 211.406 389.152 192.144 389.152C172.789 389.152 156.488 373.069 156.488 353.976C156.488 334.879 172.792 318.896 192.144 318.896C211.402 318.896 227.704 334.881 227.704 353.976ZM170.68 353.976C170.68 366.126 180.534 376.208 192.144 376.208C203.65 376.208 213.416 366.134 213.416 353.976C213.416 341.916 203.653 331.84 192.144 331.84C180.532 331.84 170.68 341.925 170.68 353.976ZM237.567 388V320.048H251.067L284.415 364.421V320.048H298.319V388H284.916L251.567 343.627V388H237.567ZM250.567 340.632L285.415 387H297.319V321.048H285.415V367.416L250.567 321.048H238.567V387H250.567V340.632ZM226.704 353.976C226.704 372.504 210.864 388.152 192.144 388.152C173.328 388.152 157.488 372.504 157.488 353.976C157.488 335.448 173.328 319.896 192.144 319.896C210.864 319.896 226.704 335.448 226.704 353.976ZM169.68 353.976C169.68 366.648 179.952 377.208 192.144 377.208C204.24 377.208 214.416 366.648 214.416 353.976C214.416 341.4 204.24 330.84 192.144 330.84C179.952 330.84 169.68 341.4 169.68 353.976Z" fill="#F7D6E0"/>
</svg>
